<?xml version="1.0" standalone="no"?>
<!DOCTYPE svg PUBLIC "-//W3C//DTD SVG 20010904//EN"
 "http://www.w3.org/TR/2001/REC-SVG-20010904/DTD/svg10.dtd">
<svg version="1.0" xmlns="http://www.w3.org/2000/svg"
 width="512.000000pt" height="481.000000pt" viewBox="0 0 512.000000 481.000000"
 preserveAspectRatio="xMidYMid meet">

<g transform="translate(0.000000,481.000000) scale(0.100000,-0.100000)"
fill="#000000" stroke="none">
<path d="M2553 4791 c-18 -30 -16 -43 6 -36 11 3 25 -1 34 -10 17 -16 37 -20
37 -7 0 14 -23 32 -41 32 -10 0 -19 9 -21 20 l-3 21 -12 -20z"/>
<path d="M2439 4775 c-1 -5 -1 -14 0 -18 1 -5 -3 -6 -9 -2 -6 3 -7 11 -4 17 4
6 -2 6 -15 -1 -11 -7 -21 -9 -21 -6 0 3 -9 1 -21 -5 -21 -12 -19 -22 6 -26 8
-1 11 4 8 12 -4 12 0 12 23 4 24 -9 31 -8 43 7 13 17 13 17 7 -2 -6 -16 -5
-17 5 -8 20 20 19 42 -2 40 -10 -1 -20 -6 -20 -12z"/>
<path d="M2653 4778 c-11 -19 -12 -37 -2 -44 5 -3 8 0 7 8 -2 7 3 12 11 10 12
-3 12 0 1 12 -9 11 -9 16 -1 16 6 0 16 -11 21 -25 5 -14 12 -25 15 -25 4 0 3
5 -1 12 -5 7 -2 9 8 5 11 -4 15 0 14 11 -2 9 -10 17 -19 17 -8 0 -19 4 -23 8
-11 10 -22 9 -31 -5z"/>
<path d="M2770 4740 c0 -5 -8 -6 -17 -3 -17 6 -17 5 0 -11 16 -17 20 -17 33
-4 14 14 14 16 0 21 -9 4 -16 2 -16 -3z"/>
<path d="M2448 4727 c-7 -7 -22 -17 -33 -21 -30 -13 -6 -17 45 -8 47 8 55 21
21 34 -13 4 -25 2 -33 -5z"/>
<path d="M2278 4700 c-10 -9 -18 -22 -18 -29 0 -7 -5 -9 -12 -5 -7 4 -10 3 -5
-1 10 -11 67 -14 73 -3 3 4 0 8 -5 8 -6 0 -11 5 -11 11 0 5 6 7 13 3 7 -5 7
-1 -3 12 -8 10 -14 20 -15 20 0 1 -8 -6 -17 -16z m13 -13 c-6 -8 -9 -17 -6
-21 3 -3 -1 -1 -7 4 -10 9 -10 13 2 20 21 13 24 12 11 -3z"/>
<path d="M2650 4705 c-7 -9 -6 -16 3 -24 11 -8 16 -6 24 12 9 19 8 24 -3 24
-8 0 -19 -6 -24 -12z"/>
<path d="M2805 4711 c-3 -5 -2 -12 3 -15 5 -3 9 1 9 9 0 17 -3 19 -12 6z"/>
<path d="M2560 4700 c0 -5 6 -10 14 -10 8 0 18 5 21 10 3 6 -3 10 -14 10 -12
0 -21 -4 -21 -10z"/>
<path d="M2844 4684 c9 -8 16 -18 16 -20 0 -9 -35 1 -42 11 -5 6 -8 5 -8 -4 0
-11 -5 -10 -25 3 -28 19 -35 20 -35 6 0 -5 6 -10 14 -10 8 0 17 -7 20 -16 4
-9 11 -12 18 -7 17 10 30 11 49 2 9 -5 19 -6 22 -3 8 8 -22 54 -35 54 -5 0 -2
-7 6 -16z"/>
<path d="M2345 4667 c-13 -10 -15 -16 -6 -21 17 -11 41 0 41 19 0 19 -11 19
-35 2z"/>
<path d="M2715 4660 c-3 -5 1 -10 9 -10 9 0 16 5 16 10 0 6 -4 10 -9 10 -6 0
-13 -4 -16 -10z"/>
<path d="M2215 4639 c-4 -6 -5 -12 -2 -15 2 -3 7 2 10 11 7 17 1 20 -8 4z"/>
<path d="M2892 4624 c-7 -8 -8 -14 -3 -14 10 0 25 19 20 25 -2 1 -10 -3 -17
-11z"/>
<path d="M2917 4593 c6 -16 5 -17 -13 -3 -19 14 -19 14 0 -8 19 -22 19 -23 -2
-52 -24 -33 -27 -40 -12 -40 6 0 10 6 10 14 0 8 12 23 27 34 26 19 27 22 14
46 -16 29 -34 36 -24 9z"/>
<path d="M2215 4590 c-3 -5 -12 -7 -20 -4 -19 8 -30 -20 -17 -43 10 -17 11
-17 18 2 4 11 14 28 22 38 8 9 12 17 9 17 -3 0 -8 -4 -12 -10z"/>
<path d="M2150 4505 c-7 -8 -9 -15 -5 -15 4 0 1 -8 -6 -17 -8 -9 -9 -14 -2
-10 6 4 14 1 17 -5 3 -7 3 -1 1 14 -2 15 2 29 8 31 7 2 9 7 6 11 -3 4 -12 0
-19 -9z"/>
<path d="M2943 4507 c-4 -8 -16 -17 -27 -20 -15 -6 -17 -14 -12 -39 3 -17 8
-34 11 -37 11 -10 27 18 27 46 0 32 15 56 31 46 6 -3 7 -1 3 5 -10 16 -23 15
-33 -1z"/>
<path d="M2180 4475 c-11 -13 -10 -18 2 -28 9 -7 19 -19 22 -27 3 -8 4 0 1 18
-2 17 0 32 5 32 6 0 10 5 10 10 0 15 -26 12 -40 -5z"/>
<path d="M2963 4468 c0 -13 1 -17 4 -10 3 6 10 9 16 5 7 -4 6 1 -2 10 -17 21
-17 21 -18 -5z"/>
<path d="M2130 4440 c8 -5 10 -10 4 -10 -7 0 -9 -11 -6 -25 2 -14 -2 -33 -9
-42 -11 -13 -11 -17 -1 -20 6 -3 10 -9 7 -13 -3 -5 -1 -12 5 -15 6 -4 10 -3 9
2 -1 4 -1 15 0 23 1 11 4 10 13 -4 8 -15 7 -22 -5 -31 -16 -12 -13 -25 5 -25
5 0 6 5 2 12 -5 7 -2 9 9 5 22 -8 41 17 24 32 -8 6 -17 8 -20 4 -4 -3 -7 6 -7
21 0 16 -4 25 -10 21 -13 -8 -13 25 0 45 9 15 -3 30 -25 30 -5 0 -3 -5 5 -10z"/>
<path d="M2975 4444 c-6 -2 -8 -29 -6 -60 2 -37 6 -52 12 -43 4 8 6 24 2 37
-3 12 0 29 7 37 10 12 10 15 -1 15 -11 0 -11 2 1 10 15 10 5 12 -15 4z"/>
<path d="M2200 4360 c0 -5 5 -10 10 -10 6 0 10 5 10 10 0 6 -4 10 -10 10 -5 0
-10 -4 -10 -10z"/>
<path d="M2225 4328 c-4 -10 -4 -26 0 -35 8 -17 8 -17 12 0 3 9 3 25 0 35 -4
16 -4 16 -12 0z"/>
<path d="M2881 4318 c-1 -22 4 -28 19 -28 11 0 20 5 20 10 0 6 -6 10 -14 10
-8 0 -17 8 -19 18 -3 10 -5 6 -6 -10z"/>
<path d="M2956 4320 c11 -17 12 -30 2 -45 -3 -6 -9 -28 -13 -50 -4 -22 -12
-48 -17 -57 -6 -12 -5 -18 3 -18 8 0 7 -5 -2 -17 -13 -16 -12 -17 3 -5 10 8
14 20 11 29 -4 10 -2 14 4 10 7 -5 9 1 5 15 -3 14 -1 19 6 14 6 -3 14 -1 18 5
4 7 3 9 -4 5 -7 -4 -10 1 -9 14 1 11 5 20 9 20 4 0 8 7 8 15 0 8 6 15 13 15 8
0 8 3 -2 9 -9 6 -11 16 -7 27 4 10 4 15 0 11 -4 -4 -14 -1 -23 6 -13 10 -14
10 -5 -3z"/>
<path d="M2142 4250 c-10 -16 -9 -18 5 -13 10 4 14 2 10 -4 -4 -6 0 -17 9 -24
13 -11 14 -9 8 17 -9 40 -18 47 -32 24z"/>
<path d="M2212 4248 c-15 -15 -16 -38 -2 -38 12 0 23 25 18 40 -2 7 -7 7 -16
-2z"/>
<path d="M2887 4243 c-15 -14 -6 -31 13 -26 11 3 20 12 20 19 0 14 -22 19 -33
7z"/>
<path d="M1822 4153 c-1 -17 -7 -35 -12 -38 -6 -4 -8 -10 -5 -15 3 -4 -2 -13
-10 -20 -19 -16 -19 -27 -1 -27 8 0 14 3 14 6 -1 3 4 19 11 35 7 17 10 44 8
60 l-4 31 -1 -32z"/>
<path d="M2165 4170 c-3 -5 -1 -10 5 -10 6 0 8 -6 4 -12 -4 -7 -3 -9 1 -5 12
10 15 37 5 37 -5 0 -12 -4 -15 -10z"/>
<path d="M2867 4160 c-14 -21 -15 -25 -1 -34 8 -7 17 -20 19 -31 2 -11 4 -22
4 -24 1 -2 8 2 16 9 11 9 12 17 4 31 -5 10 -6 19 -2 19 4 0 -2 7 -13 16 -10 8
-14 13 -7 10 6 -4 15 -1 19 5 4 7 3 9 -4 5 -5 -3 -12 -1 -14 6 -3 7 -11 2 -21
-12z m33 -49 c7 -15 7 -22 -2 -27 -7 -4 -10 -4 -6 1 4 4 3 16 -3 26 -5 11 -7
19 -5 19 3 0 10 -9 16 -19z"/>
<path d="M3291 4158 c0 -15 -6 -30 -11 -33 -6 -4 -1 -18 12 -35 23 -28 47 -42
31 -17 -4 6 -13 35 -19 62 -8 34 -12 41 -13 23z"/>
<path d="M2210 4158 c0 -4 4 -8 9 -8 6 0 12 4 15 8 3 5 -1 9 -9 9 -8 0 -15 -4
-15 -9z"/>
<path d="M2330 4166 c0 -2 11 -6 25 -8 14 -3 25 -1 25 3 0 5 -11 9 -25 9 -14
0 -25 -2 -25 -4z"/>
<path d="M2720 4143 c0 -22 2 -25 10 -13 13 20 13 40 0 40 -5 0 -10 -12 -10
-27z"/>
<path d="M2780 4164 c0 -7 27 -34 33 -34 3 0 3 9 0 20 -5 17 -33 30 -33 14z"/>
<path d="M1720 4142 c0 -6 -6 -9 -14 -6 -8 3 -17 1 -21 -5 -4 -7 0 -8 11 -4
13 5 15 3 9 -8 -5 -8 0 -7 10 3 11 10 16 21 12 24 -4 4 -7 2 -7 -4z"/>
<path d="M2225 4139 c-12 -18 -13 -59 -2 -66 6 -3 7 -2 4 4 -3 5 5 21 19 36
13 14 24 29 24 32 0 10 -39 5 -45 -6z"/>
<path d="M3364 4134 c-16 -13 -16 -15 -2 -10 10 3 20 1 23 -5 4 -5 1 -8 -5 -7
-15 4 -22 -29 -9 -38 5 -3 9 2 9 10 0 9 6 13 14 10 8 -3 17 -1 21 5 4 7 -1 8
-12 4 -10 -3 -15 -3 -11 2 4 4 3 14 -3 22 -14 16 2 18 18 2 8 -8 13 -7 18 2 5
7 4 10 -3 5 -6 -3 -13 -2 -17 4 -9 14 -18 13 -41 -6z"/>
<path d="M1732 4118 c-7 -7 -12 -17 -12 -22 0 -8 3 -7 8 0 4 6 16 16 27 22 15
8 16 11 5 12 -9 0 -21 -5 -28 -12z"/>
<path d="M2391 4114 c0 -11 3 -14 6 -6 3 7 2 16 -1 19 -3 4 -6 -2 -5 -13z"/>
<path d="M1655 4110 c3 -5 2 -10 -4 -10 -6 0 1 -11 15 -25 26 -26 49 -32 58
-16 3 5 -6 12 -20 15 -18 5 -24 12 -20 22 3 9 1 12 -4 9 -6 -3 -10 -1 -10 4 0
6 -5 11 -11 11 -5 0 -7 -4 -4 -10z"/>
<path d="M2302 4104 c4 -20 34 -41 45 -31 10 11 -11 41 -31 45 -12 3 -17 -2
-14 -14z"/>
<path d="M2772 4104 c-33 -15 -39 -41 -8 -36 9 1 24 3 34 5 9 1 16 -4 15 -10
-2 -7 0 -12 5 -12 19 3 35 -2 28 -8 -4 -5 -12 -9 -17 -9 -5 -1 -13 -2 -18 -3
-12 -1 -22 -41 -10 -41 5 0 9 5 9 11 0 5 3 8 8 6 4 -2 17 7 29 20 13 13 17 23
10 24 -7 0 -4 3 5 7 13 5 15 11 8 22 -5 8 -10 10 -10 4 0 -6 -10 -10 -22 -9
-17 2 -22 8 -21 24 3 24 0 25 -45 5z"/>
<path d="M3436 4111 c-4 -5 3 -7 14 -4 23 6 26 13 6 13 -8 0 -17 -4 -20 -9z"/>
<path d="M1741 4084 c0 -11 3 -14 6 -6 3 7 2 16 -1 19 -3 4 -6 -2 -5 -13z"/>
<path d="M3437 4088 c-14 -8 -16 -13 -6 -24 16 -19 24 -18 42 9 13 21 13 23
-2 24 -9 1 -24 -3 -34 -9z"/>
<path d="M2243 4075 c0 -8 7 -15 16 -15 11 0 12 -3 5 -8 -9 -5 -8 -11 2 -20 8
-7 14 -9 14 -5 0 4 5 1 10 -7 7 -12 12 -12 22 -2 9 9 9 12 -1 12 -8 0 -11 6
-6 18 5 14 4 15 -6 5 -7 -7 -17 -13 -21 -13 -13 0 -4 24 12 33 10 5 7 6 -7 3
-13 -2 -23 0 -23 5 0 5 -4 9 -8 9 -5 0 -9 -7 -9 -15z"/>
<path d="M1590 4065 c0 -8 -5 -14 -11 -12 -6 1 -18 -9 -27 -23 -9 -14 -12 -22
-8 -18 5 4 14 1 20 -8 10 -13 15 -12 35 10 19 20 21 26 9 26 -11 0 -14 6 -11
20 3 11 3 20 -1 20 -3 0 -6 -7 -6 -15z m0 -49 c-13 -13 -35 7 -25 24 5 8 11 8
21 -1 10 -8 12 -15 4 -23z"/>
<path d="M3257 4059 c7 -7 15 -10 18 -7 3 3 -2 9 -12 12 -14 6 -15 5 -6 -5z"/>
<path d="M1849 4053 c-1 -5 -1 -11 0 -15 0 -5 -6 -8 -14 -8 -20 0 -19 -16 1
-24 8 -3 12 -11 8 -17 -4 -8 0 -8 15 0 11 7 21 17 20 24 0 9 -2 9 -6 0 -2 -7
-9 -13 -14 -13 -14 0 -6 24 11 32 12 5 11 7 -3 7 -10 1 -15 6 -12 11 3 6 4 10
1 10 -3 0 -7 -3 -7 -7z"/>
<path d="M3535 4050 c-3 -6 -17 -7 -31 -4 -14 4 -24 2 -24 -5 0 -6 12 -11 26
-11 16 0 23 -4 18 -12 -4 -7 -3 -8 4 -4 7 4 12 1 12 -8 0 -9 4 -16 10 -16 5 0
12 -11 16 -25 4 -15 13 -25 24 -25 28 0 32 -14 14 -49 -9 -18 -13 -35 -10 -39
9 -9 34 20 37 43 3 24 -38 95 -55 95 -15 0 -34 31 -30 53 3 19 -2 22 -11 7z"/>
<path d="M1761 4016 c-1 -29 2 -37 10 -29 8 8 8 19 1 40 -10 28 -10 28 -11
-11z"/>
<path d="M3349 4024 c-12 -32 -12 -44 1 -44 6 0 10 10 10 21 0 18 3 19 15 9
13 -11 35 -6 35 8 0 4 -12 12 -26 19 -23 10 -26 9 -35 -13z"/>
<path d="M2359 4033 c0 -5 -2 -16 -4 -26 -3 -15 -1 -16 13 -6 14 11 15 11 5
-1 -7 -8 -13 -19 -13 -26 0 -18 28 -25 34 -8 3 9 1 12 -4 9 -6 -3 -10 -2 -10
4 0 5 4 13 10 16 6 4 5 13 -3 25 -12 20 -26 26 -28 13z"/>
<path d="M1700 4020 c0 -5 7 -10 16 -10 8 0 12 5 9 10 -3 6 -10 10 -16 10 -5
0 -9 -4 -9 -10z"/>
<path d="M2720 4020 c0 -5 8 -10 18 -10 14 0 15 -2 2 -10 -11 -7 -11 -10 -2
-10 7 0 11 -4 7 -9 -3 -5 0 -13 6 -17 8 -5 9 -3 4 6 -6 9 -4 12 7 8 8 -4 15
-1 15 7 0 7 -7 11 -14 8 -8 -3 -13 -2 -12 3 4 22 -2 34 -16 34 -8 0 -15 -4
-15 -10z"/>
<path d="M2523 4013 c-43 -8 -23 -23 31 -23 30 0 63 -3 73 -7 17 -6 17 -6 2 9
-18 18 -71 29 -106 21z"/>
<path d="M3240 4011 c0 -6 9 -15 19 -21 16 -8 19 -7 17 8 -3 18 -36 31 -36 13z"/>
<path d="M1503 3976 c-13 -13 -23 -30 -23 -37 0 -8 6 -5 16 7 12 14 14 15 11
3 -4 -13 -1 -15 13 -12 19 5 37 39 26 50 -3 4 -6 1 -6 -5 0 -7 -5 -12 -11 -12
-6 0 -9 7 -5 15 7 20 5 19 -21 -9z"/>
<path d="M1853 3973 c-10 -3 -10 -10 -2 -25 9 -17 13 -18 20 -7 7 11 9 11 9 1
0 -7 4 -11 9 -8 13 8 42 -4 35 -15 -3 -5 2 -12 10 -15 25 -9 19 -21 -16 -33
l-32 -11 23 -16 c21 -15 23 -15 36 2 7 10 11 22 9 26 -3 5 -1 8 5 8 14 0 26
-22 23 -42 -2 -11 3 -18 13 -18 10 0 13 -5 9 -12 -4 -6 -3 -8 3 -5 6 4 13 0
17 -8 9 -24 -14 -28 -38 -6 -26 24 -46 27 -46 6 0 -15 49 -45 75 -45 8 0 15 7
15 15 0 8 5 15 12 15 7 0 -3 15 -20 33 -18 18 -30 36 -27 39 3 3 -10 19 -29
36 -19 16 -33 32 -30 35 7 6 -17 23 -51 36 l-30 11 30 -5 c22 -4 26 -3 15 5
-16 10 -28 11 -47 3z m97 -107 c0 -3 -4 -8 -10 -11 -5 -3 -10 -1 -10 4 0 6 5
11 10 11 6 0 10 -2 10 -4z"/>
<path d="M3220 3970 c-11 -8 -7 -9 14 -4 26 6 28 5 21 -17 -6 -19 -5 -22 5
-12 15 14 6 43 -12 43 -7 0 -20 -5 -28 -10z"/>
<path d="M3615 3970 c-3 -5 -1 -10 4 -10 6 0 11 5 11 10 0 6 -2 10 -4 10 -3 0
-8 -4 -11 -10z"/>
<path d="M2695 3961 c-3 -5 -1 -12 5 -16 5 -3 10 1 10 9 0 18 -6 21 -15 7z"/>
<path d="M3213 3950 c-30 -12 -29 -17 1 -17 14 0 27 6 30 13 6 16 0 17 -31 4z"/>
<path d="M1580 3930 c0 -19 11 -26 23 -14 8 8 -3 34 -14 34 -5 0 -9 -9 -9 -20z"/>
<path d="M2530 3934 c0 -11 8 -14 27 -12 39 4 42 28 4 28 -21 0 -31 -5 -31
-16z"/>
<path d="M2636 3933 c-6 -14 -5 -15 5 -6 7 7 10 15 7 18 -3 3 -9 -2 -12 -12z"/>
<path d="M3521 3908 c0 -24 3 -36 6 -28 4 8 13 20 22 26 13 10 13 13 -1 28
-24 24 -28 20 -27 -26z"/>
<path d="M1760 3921 c0 -12 5 -21 10 -21 6 0 10 6 10 14 0 8 -4 18 -10 21 -5
3 -10 -3 -10 -14z"/>
<path d="M3340 3920 c0 -11 5 -20 10 -20 6 0 10 9 10 20 0 11 -4 20 -10 20 -5
0 -10 -9 -10 -20z"/>
<path d="M1490 3913 c-1 -53 53 -83 78 -43 7 12 8 20 2 20 -5 0 -10 -4 -10
-10 0 -20 -29 -9 -49 18 -11 15 -21 22 -21 15z"/>
<path d="M3167 3902 c-8 -11 29 -52 47 -52 9 0 16 5 16 10 0 6 -9 10 -21 10
-11 0 -17 5 -14 10 4 6 1 9 -7 8 -7 -2 -12 3 -10 10 2 13 -4 16 -11 4z"/>
<path d="M1430 3861 c0 -11 -6 -22 -12 -24 -10 -4 -10 -6 0 -6 7 -1 11 -5 7
-10 -3 -5 -1 -12 4 -15 5 -4 8 2 7 11 -2 10 4 23 12 29 8 6 12 16 8 22 -11 18
-26 14 -26 -7z"/>
<path d="M3670 3865 c-10 -12 -10 -15 2 -15 10 0 14 -10 13 -34 -2 -26 1 -33
12 -29 12 5 12 7 1 14 -9 6 -9 9 -1 9 7 0 10 10 7 28 -7 37 -18 46 -34 27z"/>
<path d="M1810 3860 c0 -5 9 -10 20 -10 11 0 20 5 20 10 0 6 -9 10 -20 10 -11
0 -20 -4 -20 -10z"/>
<path d="M3119 3854 c-7 -9 -14 -25 -16 -36 -3 -16 2 -14 22 10 14 16 25 33
25 36 0 12 -18 6 -31 -10z"/>
<path d="M3275 3860 c-3 -5 3 -10 14 -10 12 0 21 5 21 10 0 6 -6 10 -14 10 -8
0 -18 -4 -21 -10z"/>
<path d="M3540 3860 c0 -5 5 -10 10 -10 6 0 10 5 10 10 0 6 -4 10 -10 10 -5 0
-10 -4 -10 -10z"/>
<path d="M1404 3808 c3 -10 0 -18 -5 -18 -6 0 -9 -9 -6 -20 3 -11 0 -20 -6
-20 -7 0 -1 -6 12 -13 14 -6 27 -19 29 -27 4 -12 0 -11 -15 3 -17 15 -22 15
-32 3 -9 -11 -8 -15 3 -19 11 -4 13 -1 10 11 -5 14 -3 14 10 -2 18 -22 31 -15
31 19 1 16 -4 21 -15 18 -13 -4 -13 -3 0 9 8 7 16 20 18 28 2 12 -1 11 -11 -2
-8 -10 -17 -15 -20 -11 -4 3 -3 11 3 17 5 7 5 17 -2 26 -8 12 -9 12 -4 -2z"/>
<path d="M3186 3807 c3 -10 9 -15 12 -12 3 3 0 11 -7 18 -10 9 -11 8 -5 -6z"/>
<path d="M3131 3803 c-1 -7 -9 -13 -18 -13 -15 0 -16 -2 -3 -10 18 -11 35 2
27 22 -4 9 -6 10 -6 1z"/>
<path d="M3040 3770 c-6 -11 -16 -18 -21 -14 -8 4 -8 0 -1 -12 5 -11 8 -27 7
-37 -2 -9 0 -15 5 -12 5 3 7 13 5 23 -1 9 6 27 17 38 12 14 16 24 9 28 -5 4
-15 -3 -21 -14z"/>
<path d="M3706 3772 c-2 -4 -1 -14 4 -22 6 -10 2 -22 -12 -37 l-20 -22 21 2
c13 1 20 6 16 15 -2 7 2 15 11 19 13 5 13 7 -1 23 -8 9 -12 20 -8 23 3 4 4 7
0 7 -3 0 -8 -4 -11 -8z"/>
<path d="M3090 3760 c-12 -8 -11 -10 8 -10 12 0 22 5 22 10 0 13 -11 13 -30 0z"/>
<path d="M3143 3743 c-13 -13 -23 -26 -23 -28 0 -13 29 -3 45 15 27 29 5 41
-22 13z"/>
<path d="M2088 3755 c-4 -4 -4 -13 -1 -21 3 -8 -1 -14 -11 -14 -9 0 -16 -6
-16 -14 0 -8 8 -14 19 -13 12 1 17 6 13 15 -3 10 0 13 9 10 8 -3 13 -10 12
-16 -1 -5 8 -9 21 -8 28 1 25 26 -6 45 -11 7 -17 8 -13 2 3 -6 2 -11 -4 -11
-5 0 -11 7 -13 16 -2 9 -6 13 -10 9z m47 -35 c3 -5 1 -10 -4 -10 -6 0 -11 5
-11 10 0 6 2 10 4 10 3 0 8 -4 11 -10z"/>
<path d="M1920 3740 c0 -5 5 -10 10 -10 6 0 10 5 10 10 0 6 -4 10 -10 10 -5 0
-10 -4 -10 -10z"/>
<path d="M2966 3704 c-14 -10 -13 -12 12 -11 16 1 29 7 29 13 0 14 -20 14 -41
-2z"/>
<path d="M3731 3704 c0 -11 3 -14 6 -6 3 7 2 16 -1 19 -3 4 -6 -2 -5 -13z"/>
<path d="M1980 3700 c0 -5 7 -10 15 -10 8 0 15 5 15 10 0 6 -7 10 -15 10 -8 0
-15 -4 -15 -10z"/>
<path d="M3070 3700 c0 -5 9 -10 21 -10 11 0 17 5 14 10 -3 6 -13 10 -21 10
-8 0 -14 -4 -14 -10z"/>
<path d="M3180 3700 c0 -5 5 -10 10 -10 6 0 10 5 10 10 0 6 -4 10 -10 10 -5 0
-10 -4 -10 -10z"/>
<path d="M1370 3664 c0 -8 5 -12 10 -9 6 3 10 10 10 16 0 5 -4 9 -10 9 -5 0
-10 -7 -10 -16z"/>
<path d="M2870 3670 c-8 -5 -10 -10 -5 -10 6 0 17 5 25 10 8 5 11 10 5 10 -5
0 -17 -5 -25 -10z"/>
<path d="M3713 3610 c0 -41 2 -58 4 -37 2 20 2 54 0 75 -2 20 -4 3 -4 -38z"/>
<path d="M2245 3641 c4 -33 18 -51 42 -51 6 0 18 -3 27 -6 9 -3 16 -1 16 5 0
6 -9 11 -20 11 -11 0 -20 4 -20 10 0 5 -7 7 -16 3 -14 -5 -15 -3 -5 15 7 14 8
23 1 27 -5 3 -10 3 -10 -2 0 -4 -5 -1 -10 7 -7 11 -8 5 -5 -19z"/>
<path d="M2830 3652 c0 -7 5 -12 10 -12 6 0 9 -5 8 -12 -2 -6 5 -14 15 -16 9
-2 17 2 17 8 0 6 -4 8 -10 5 -5 -3 -10 -2 -10 4 0 5 3 11 8 14 4 2 2 3 -4 1
-6 -1 -17 3 -23 9 -8 8 -11 8 -11 -1z"/>
<path d="M2810 3642 c0 -7 -4 -11 -9 -7 -5 3 -12 1 -16 -4 -3 -6 3 -8 15 -6
11 2 20 -1 20 -7 0 -6 3 -9 6 -5 3 3 1 14 -5 24 -6 11 -11 13 -11 5z"/>
<path d="M3682 3620 c0 -19 2 -27 5 -17 2 9 2 25 0 35 -3 9 -5 1 -5 -18z"/>
<path d="M2313 3628 c-3 -7 -1 -8 5 -4 7 4 12 1 12 -6 0 -9 3 -9 10 2 6 10 10
11 10 3 0 -7 8 -13 18 -13 15 1 15 2 -3 12 -27 17 -44 18 -52 6z"/>
<path d="M3744 3305 c0 -170 2 -242 3 -158 2 83 2 223 0 310 -1 87 -3 19 -3
-152z"/>
<path d="M2523 3587 c-3 -4 -3 -11 1 -14 8 -9 76 7 76 18 0 12 -69 8 -77 -4z"/>
<path d="M2808 3581 c-20 -20 -23 -31 -8 -31 12 0 50 32 50 42 0 14 -24 7 -42
-11z"/>
<path d="M2400 3580 c0 -5 7 -10 15 -10 8 0 15 5 15 10 0 6 -7 10 -15 10 -8 0
-15 -4 -15 -10z"/>
<path d="M2720 3576 c0 -9 5 -16 10 -16 6 0 10 4 10 9 0 6 -4 13 -10 16 -5 3
-10 -1 -10 -9z"/>
<path d="M2860 3554 c0 -8 5 -12 10 -9 6 3 10 10 10 16 0 5 -4 9 -10 9 -5 0
-10 -7 -10 -16z"/>
<path d="M2275 3540 c-3 -5 3 -10 14 -10 12 0 21 5 21 10 0 6 -6 10 -14 10 -8
0 -18 -4 -21 -10z"/>
<path d="M2366 3541 c-9 -13 10 -17 53 -12 33 4 34 5 11 12 -36 10 -58 10 -64
0z"/>
<path d="M2640 3540 c0 -5 7 -10 16 -10 8 0 12 5 9 10 -3 6 -10 10 -16 10 -5
0 -9 -4 -9 -10z"/>
<path d="M1923 3365 c0 -10 6 -14 15 -10 10 4 12 0 8 -11 -3 -8 -6 -18 -6 -20
0 -3 -4 -3 -9 0 -5 4 -7 -3 -4 -15 5 -19 7 -19 18 9 15 34 35 51 35 28 0 -26
15 -25 17 1 1 21 -3 24 -23 20 -14 -2 -27 0 -30 4 -8 14 -21 10 -21 -6z"/>
<path d="M3177 3373 c-3 -3 -55 -6 -114 -6 l-108 0 85 -6 c73 -5 85 -9 84 -23
-1 -10 3 -15 8 -12 5 3 7 12 4 20 -3 8 1 14 10 14 9 0 12 -5 8 -12 -5 -10 -4
-10 6 -1 7 6 19 9 26 6 8 -3 14 0 14 5 0 14 -15 23 -23 15z"/>
<path d="M2068 3363 c7 -3 16 -2 19 1 4 3 -2 6 -13 5 -11 0 -14 -3 -6 -6z"/>
<path d="M2338 3363 c12 -2 32 -2 45 0 12 2 2 4 -23 4 -25 0 -35 -2 -22 -4z"/>
<path d="M3710 3195 c-5 -153 -1 -225 11 -199 2 5 2 90 -1 189 l-5 180 -5
-170z"/>
<path d="M2058 3343 c6 -2 18 -2 25 0 6 3 1 5 -13 5 -14 0 -19 -2 -12 -5z"/>
<path d="M3048 3343 c7 -3 16 -2 19 1 4 3 -2 6 -13 5 -11 0 -14 -3 -6 -6z"/>
<path d="M3170 3335 c0 -5 5 -17 10 -25 5 -8 10 -10 10 -5 0 6 -5 17 -10 25
-5 8 -10 11 -10 5z"/>
<path d="M1927 3265 c-4 -8 -2 -17 3 -20 6 -4 10 3 10 14 0 25 -6 27 -13 6z"/>
<path d="M1373 3170 c0 -25 2 -35 4 -22 2 12 2 32 0 45 -2 12 -4 2 -4 -23z"/>
<path d="M1923 3095 c0 -22 2 -30 4 -17 2 12 2 30 0 40 -3 9 -5 -1 -4 -23z"/>
<path d="M1372 3034 c3 -31 38 -48 38 -19 0 9 -4 13 -10 10 -5 -3 -10 1 -10 9
0 8 -5 18 -11 21 -7 5 -9 -3 -7 -21z"/>
<path d="M3192 3010 c0 -14 2 -19 5 -12 2 6 2 18 0 25 -3 6 -5 1 -5 -13z"/>
<path d="M1920 3004 c0 -8 5 -12 10 -9 6 4 8 11 5 16 -9 14 -15 11 -15 -7z"/>
<path d="M1940 2976 c0 -8 -5 -16 -12 -18 -8 -3 -7 -6 3 -10 10 -4 15 1 17 18
1 13 0 24 -3 24 -3 0 -5 -6 -5 -14z"/>
<path d="M3172 2980 c0 -8 3 -24 7 -34 7 -19 8 -19 13 2 4 12 2 20 -2 17 -5
-3 -11 3 -13 12 -3 12 -5 13 -5 3z"/>
<path d="M1423 2972 c-15 -9 -13 -50 2 -56 7 -2 12 9 12 30 0 19 -1 34 -1 34
-1 0 -6 -4 -13 -8z"/>
<path d="M3683 2946 c0 -25 4 -33 14 -29 10 4 11 9 4 16 -19 19 -12 31 8 13
15 -14 20 -14 30 -2 9 11 8 15 -3 19 -11 4 -13 1 -9 -11 4 -12 0 -11 -16 6
-12 12 -23 22 -25 22 -1 0 -3 -15 -3 -34z"/>
<path d="M1380 2960 c-9 -6 -10 -10 -3 -10 6 0 15 5 18 10 8 12 4 12 -15 0z"/>
<path d="M1388 2911 c8 -4 13 -12 12 -17 -1 -5 3 -10 10 -12 13 -5 9 20 -5 30
-5 4 -14 8 -20 8 -5 0 -4 -4 3 -9z"/>
<path d="M3710 2910 c-13 -9 -13 -10 0 -10 13 0 13 -1 0 -11 -10 -7 -11 -9 -2
-7 8 2 13 7 12 12 -1 5 4 13 12 17 7 5 9 9 3 9 -5 0 -17 -5 -25 -10z"/>
<path d="M1920 2894 c0 -8 -4 -13 -9 -9 -5 3 -12 1 -16 -5 -4 -6 -10 -8 -15
-5 -4 3 -13 -2 -19 -9 -8 -10 -9 -16 -1 -21 6 -3 7 -12 3 -18 -11 -18 -12 -38
-2 -31 5 3 7 10 4 15 -4 5 1 9 9 9 8 0 18 5 22 12 4 7 3 8 -4 4 -9 -5 -9 -1
-3 16 5 13 14 22 20 21 6 -2 15 6 21 17 7 14 7 20 0 20 -5 0 -10 -7 -10 -16z"/>
<path d="M1513 2893 c-7 -3 -13 -9 -13 -14 0 -12 37 -12 44 0 7 11 -14 20 -31
14z"/>
<path d="M3586 2893 c-12 -12 -5 -23 14 -23 11 0 20 4 20 9 0 11 -26 22 -34
14z"/>
<path d="M1787 2884 c-8 -8 41 -56 53 -52 5 2 -4 15 -19 31 -15 15 -30 24 -34
21z"/>
<path d="M3225 2879 c-5 -8 -4 -10 3 -5 12 7 16 -5 13 -31 -1 -7 2 -13 7 -13
4 0 14 6 22 13 9 8 8 3 -3 -14 -15 -26 -14 -39 6 -39 5 0 6 7 3 15 -3 9 1 18
9 21 7 3 11 12 8 20 -3 8 0 21 7 29 11 13 8 15 -13 13 -14 -1 -23 -6 -21 -10
8 -12 -10 -10 -23 3 -8 8 -13 7 -18 -2z"/>
<path d="M3347 2874 c-11 -11 -8 -44 3 -44 15 0 24 30 13 41 -5 5 -12 6 -16 3z"/>
<path d="M3533 2855 c-7 -8 -13 -20 -13 -28 0 -18 43 -54 58 -49 8 2 3 11 -13
24 -25 19 -34 48 -15 48 6 0 10 5 10 10 0 14 -13 12 -27 -5z"/>
<path d="M3661 2867 c2 -1 13 -9 24 -17 19 -14 19 -14 6 3 -7 9 -18 17 -24 17
-6 0 -8 -1 -6 -3z"/>
<path d="M1420 2850 c-9 -6 -10 -10 -3 -10 6 0 15 5 18 10 8 12 4 12 -15 0z"/>
<path d="M1453 2821 c-1 -28 0 -32 7 -16 5 11 9 14 9 7 1 -8 6 -10 14 -6 7 5
6 0 -3 -11 -14 -17 -13 -18 4 -12 14 6 17 4 12 -9 -5 -14 -4 -15 9 -4 11 10
13 15 4 20 -8 6 -8 9 0 14 15 10 6 23 -27 40 -27 14 -27 14 -29 -23z"/>
<path d="M1762 2808 c2 -29 7 -56 13 -60 14 -10 35 11 28 29 -5 13 -2 14 18 4
22 -11 22 -11 6 2 -14 11 -15 16 -5 20 7 3 3 4 -9 4 -12 -1 -20 -4 -17 -8 2
-4 -2 -9 -9 -12 -11 -4 -13 4 -10 34 3 24 0 39 -7 39 -7 0 -10 -19 -8 -52z
m38 -42 c0 -3 -4 -8 -10 -11 -5 -3 -10 -1 -10 4 0 6 5 11 10 11 6 0 10 -2 10
-4z"/>
<path d="M3628 2833 c-10 -2 -18 -11 -18 -20 0 -10 6 -13 18 -9 16 6 16 5 0
-8 -23 -17 -23 -25 0 -20 11 3 18 15 18 35 1 16 1 28 0 28 0 -1 -9 -3 -18 -6z"/>
<path d="M1561 2806 c-30 -23 -31 -25 -14 -35 16 -8 22 -5 37 20 24 40 17 44
-23 15z"/>
<path d="M3290 2794 c0 -11 6 -15 20 -11 10 3 21 0 23 -7 3 -8 9 -7 18 3 8 8
9 11 2 7 -6 -3 -16 2 -22 11 -6 10 -11 12 -11 6 0 -7 -5 -13 -11 -13 -5 0 -7
5 -4 10 3 6 1 10 -4 10 -6 0 -11 -7 -11 -16z"/>
<path d="M3336 2752 c-3 -5 1 -9 9 -9 8 0 15 4 15 9 0 4 -4 8 -9 8 -6 0 -12
-4 -15 -8z"/>
<path d="M1586 2741 c-3 -5 1 -11 9 -14 9 -4 12 -1 8 9 -6 16 -10 17 -17 5z"/>
<path d="M3517 2743 c-12 -12 -7 -22 8 -17 8 4 15 10 15 15 0 11 -14 12 -23 2z"/>
<path d="M1660 2718 c0 -4 4 -8 9 -8 6 0 12 4 15 8 3 5 -1 9 -9 9 -8 0 -15 -4
-15 -9z"/>
<path d="M1195 2491 c28 -6 29 -7 10 -18 -27 -15 -11 -29 18 -15 12 6 31 13
42 15 15 4 13 5 -7 6 -15 0 -30 6 -33 11 -3 6 -18 9 -33 9 -27 -1 -27 -1 3 -8z"/>
<path d="M3883 2484 c0 -8 11 -14 26 -14 19 0 22 3 13 12 -17 17 -39 18 -39 2z"/>
<path d="M3968 2493 c7 -3 16 -2 19 1 4 3 -2 6 -13 5 -11 0 -14 -3 -6 -6z"/>
<path d="M1095 2480 c-3 -5 -1 -10 4 -10 6 0 11 5 11 10 0 6 -2 10 -4 10 -3 0
-8 -4 -11 -10z"/>
<path d="M4002 2474 c-11 -11 -11 -18 -2 -29 6 -8 8 -20 4 -26 -4 -8 -3 -9 5
-5 7 4 9 17 6 29 -6 20 -5 21 8 5 22 -28 27 -21 11 12 -18 35 -15 34 -32 14z"/>
<path d="M1035 2460 c-10 -11 -22 -17 -26 -14 -5 3 -9 1 -9 -4 0 -5 16 -13 35
-19 19 -6 33 -7 29 -2 -3 5 -12 9 -20 9 -8 0 -14 5 -14 11 0 5 5 7 10 4 13 -8
40 12 40 29 0 6 -5 3 -11 -6 -5 -10 -15 -18 -21 -18 -7 0 -6 5 2 15 18 22 6
18 -15 -5z"/>
<path d="M4040 2473 c0 -17 28 -35 56 -35 16 0 21 -3 14 -8 -7 -4 -20 -5 -30
-3 -10 3 -20 1 -23 -4 -3 -4 10 -8 29 -8 39 -1 52 20 24 35 -11 6 -20 7 -20 3
0 -4 -5 -1 -10 7 -9 13 -10 13 -10 0 -1 -11 -4 -10 -15 4 -8 11 -15 15 -15 9z"/>
<path d="M1310 2460 c0 -5 5 -10 10 -10 6 0 10 -4 10 -10 0 -6 -9 -6 -25 0
-19 7 -23 6 -19 -5 3 -8 12 -11 21 -8 12 5 14 3 8 -8 -6 -11 -5 -11 5 -2 7 6
19 9 28 6 9 -4 6 4 -9 20 -25 30 -29 32 -29 17z"/>
<path d="M1080 2445 c-7 -9 -8 -15 -2 -15 5 0 12 7 16 15 3 8 4 15 2 15 -2 0
-9 -7 -16 -15z"/>
<path d="M1106 2444 c-8 -21 -6 -23 17 -15 17 6 17 9 4 19 -12 10 -16 9 -21
-4z"/>
<path d="M3770 2440 c-6 -11 -17 -20 -24 -20 -8 0 -16 -11 -18 -24 -4 -21 -3
-23 13 -13 10 6 14 14 9 17 -5 3 -1 11 10 18 22 14 27 8 26 -33 -1 -20 -6 -30
-16 -30 -8 0 -23 -12 -32 -27 -10 -16 -22 -28 -28 -28 -16 0 -12 -27 5 -34 9
-3 21 4 30 18 9 13 30 30 47 37 29 12 30 14 24 56 -4 31 -2 42 5 37 6 -3 3 5
-6 20 -21 31 -31 33 -45 6z m34 -6 c4 -10 1 -14 -6 -12 -15 5 -23 28 -10 28 5
0 13 -7 16 -16z"/>
<path d="M3838 2432 c24 -22 53 -23 60 -3 3 9 -5 12 -24 10 -16 -2 -36 0 -44
5 -8 4 -5 -1 8 -12z"/>
<path d="M1220 2420 c0 -5 7 -10 15 -10 8 0 15 5 15 10 0 6 -7 10 -15 10 -8 0
-15 -4 -15 -10z"/>
<path d="M938 2407 c-15 -12 -15 -14 0 -23 15 -10 14 -12 -6 -23 -19 -10 -27
-10 -40 1 -13 11 -14 11 -8 -1 7 -10 3 -12 -13 -6 -13 4 -21 2 -21 -5 0 -6 5
-8 10 -5 6 3 10 1 10 -5 0 -6 10 -8 23 -6 34 6 80 33 68 40 -5 4 -8 15 -6 26
4 23 5 23 -17 7z"/>
<path d="M1366 2403 c-8 -21 11 -43 31 -36 11 5 14 3 9 -6 -5 -7 -16 -11 -25
-8 -10 2 -18 -1 -18 -8 0 -14 14 -14 35 -2 7 5 12 3 12 -5 0 -9 3 -9 10 2 7
11 5 19 -10 31 -10 9 -18 18 -16 20 2 2 -2 9 -9 16 -10 10 -14 9 -19 -4z m18
-19 c3 -8 2 -12 -4 -9 -6 3 -10 10 -10 16 0 14 7 11 14 -7z"/>
<path d="M4160 2401 c0 -6 4 -12 8 -15 5 -3 9 1 9 9 0 8 -4 15 -9 15 -4 0 -8
-4 -8 -9z"/>
<path d="M4207 2382 c12 -11 19 -23 15 -26 -3 -4 2 -4 13 0 16 5 18 4 8 -6 -6
-7 -9 -19 -6 -26 3 -9 -2 -14 -16 -14 -12 0 -21 -4 -21 -10 0 -18 26 -11 48
13 25 27 18 41 -33 71 -30 17 -30 17 -8 -2z"/>
<path d="M2982 2383 c-10 -4 -10 -8 -1 -19 9 -11 8 -14 -1 -14 -19 0 -6 -10
19 -15 13 -2 19 0 15 7 -4 6 1 8 15 3 12 -3 21 -2 21 4 0 18 -20 23 -37 9 -15
-11 -16 -11 -10 4 7 19 -1 28 -21 21z"/>
<path d="M1308 2359 c-24 -26 -22 -35 8 -31 18 3 28 -4 42 -27 17 -31 37 -36
37 -10 0 8 -10 18 -22 24 -12 5 -25 22 -28 37 -8 32 -13 33 -37 7z"/>
<path d="M2093 2373 c14 -8 7 -22 -8 -17 -8 4 -15 2 -15 -4 0 -17 30 -23 36
-7 4 8 11 15 16 15 6 0 8 -6 5 -14 -4 -10 2 -13 24 -12 26 2 33 -4 31 -25 -1
-4 17 -6 38 -5 22 0 40 5 40 10 0 5 18 6 40 3 41 -5 60 7 41 26 -8 8 -11 7
-11 -3 0 -9 -5 -8 -20 5 -16 15 -20 15 -20 3 0 -8 -7 -15 -15 -15 -12 0 -12 3
-2 16 10 12 9 14 -5 8 -10 -3 -20 -1 -24 4 -4 6 -14 2 -25 -10 -21 -22 -35
-28 -24 -11 4 6 3 10 -2 9 -21 -4 -24 2 -12 19 13 15 12 16 -3 3 -10 -8 -28
-11 -42 -7 -13 3 -30 7 -38 9 -7 2 -10 2 -5 0z m157 -34 c0 -5 -4 -9 -8 -9 -5
0 -9 7 -9 15 0 8 4 12 9 9 4 -3 8 -9 8 -15z m-83 5 c-3 -3 -12 -4 -19 -1 -8 3
-5 6 6 6 11 1 17 -2 13 -5z"/>
<path d="M2200 2369 c0 -5 5 -7 10 -4 6 3 10 8 10 11 0 2 -4 4 -10 4 -5 0 -10
-5 -10 -11z"/>
<path d="M2905 2370 c3 -5 8 -10 11 -10 2 0 4 5 4 10 0 6 -5 10 -11 10 -5 0
-7 -4 -4 -10z"/>
<path d="M2939 2368 c7 -10 12 -18 10 -19 -39 -7 -48 -7 -52 5 -6 15 -62 12
-82 -4 -5 -4 -18 -6 -27 -5 -10 2 -20 0 -23 -5 -3 -5 3 -7 12 -6 10 2 27 -2
38 -7 46 -23 52 -25 66 -16 8 5 24 9 37 9 12 0 22 5 22 11 0 5 4 8 9 5 14 -9
6 23 -9 37 -12 10 -12 9 -1 -5z m-55 -23 c-5 -13 -54 -15 -54 -2 0 5 7 7 15 3
8 -3 15 -2 15 3 0 4 6 8 14 8 8 0 12 -5 10 -12z"/>
<path d="M3694 2362 c3 -6 1 -12 -6 -14 -9 -3 -9 -6 0 -12 7 -4 12 -3 12 3 0
6 7 8 15 5 23 -9 18 4 -6 17 -13 6 -19 7 -15 1z"/>
<path d="M4164 2345 c0 -14 4 -25 9 -25 5 0 7 7 3 15 -3 10 1 15 12 15 15 0
15 2 2 10 -22 14 -26 12 -26 -15z"/>
<path d="M2406 2308 c3 -4 12 -4 21 -1 13 5 14 3 5 -13 -12 -21 3 -59 19 -48
6 4 5 12 -3 22 -8 9 -8 13 -1 9 6 -4 22 -3 35 2 17 7 18 10 6 10 -10 1 -18 6
-18 12 0 5 -4 8 -9 4 -5 -3 -12 -1 -16 4 -3 5 -14 9 -25 8 -10 -1 -17 -5 -14
-9z"/>
<path d="M2700 2309 c0 -5 -8 -9 -17 -8 -32 3 -44 -1 -38 -12 4 -6 -1 -17 -11
-25 -18 -14 -18 -14 4 -4 15 7 28 7 41 1 13 -7 24 -6 37 4 19 14 62 11 97 -7
21 -11 22 -4 1 16 -8 9 -26 16 -39 16 -13 0 -25 5 -27 11 -3 9 -9 9 -26 0 -18
-10 -21 -9 -16 4 4 8 3 15 0 15 -3 0 -6 -5 -6 -11z m-3 -39 c3 -10 2 -11 -4
-4 -4 6 -15 14 -23 17 -11 5 -9 6 4 4 11 -1 21 -9 23 -17z"/>
<path d="M2095 2300 c-4 -6 5 -10 19 -10 14 0 26 5 26 10 0 6 -9 10 -19 10
-11 0 -23 -4 -26 -10z"/>
<path d="M2985 2300 c-4 -6 6 -10 24 -10 16 0 31 -6 34 -12 3 -7 4 -3 4 10 -1
17 -7 22 -29 22 -15 0 -30 -4 -33 -10z"/>
<path d="M4323 2290 c1 -12 6 -16 17 -12 13 5 13 3 1 -11 -7 -9 -11 -17 -8
-17 2 0 9 6 15 13 9 10 6 17 -8 29 -17 16 -19 15 -17 -2z"/>
<path d="M756 2290 c16 -33 27 -42 35 -28 7 10 9 10 9 1 0 -19 17 -16 24 4 4
10 4 14 0 11 -4 -4 -15 -3 -25 3 -14 7 -19 6 -19 -3 0 -6 -7 -3 -16 8 -8 10
-12 12 -8 4z"/>
<path d="M2343 2293 c-28 -5 -30 -23 -4 -23 28 0 52 11 45 21 -3 5 -8 8 -12 8
-4 -1 -17 -4 -29 -6z"/>
<path d="M1422 2279 c2 -6 8 -10 13 -10 5 0 11 4 13 10 2 6 -4 11 -13 11 -9 0
-15 -5 -13 -11z"/>
<path d="M710 2270 c0 -6 -6 -8 -12 -4 -7 4 -10 4 -6 -1 5 -5 22 -10 40 -12
17 -2 28 0 24 4 -4 5 -11 8 -14 8 -4 0 -13 4 -19 8 -8 5 -13 4 -13 -3z"/>
<path d="M1296 2265 c-3 -9 1 -18 10 -22 19 -7 28 2 21 22 -8 19 -23 19 -31 0z"/>
<path d="M2513 2265 c0 -8 4 -12 9 -9 5 3 6 10 3 15 -9 13 -12 11 -12 -6z"/>
<path d="M2591 2264 c0 -11 3 -14 6 -6 3 7 2 16 -1 19 -3 4 -6 -2 -5 -13z"/>
<path d="M4396 2272 c-4 -7 -12 -9 -18 -6 -6 4 -8 3 -5 -3 7 -11 43 -10 54 2
5 4 3 5 -4 2 -6 -4 -13 -2 -15 5 -3 9 -6 9 -12 0z"/>
<path d="M880 2260 c-12 -8 -9 -10 12 -10 15 0 30 5 33 10 8 13 -25 13 -45 0z"/>
<path d="M1966 2264 c7 -3 10 -15 7 -27 -4 -22 -4 -22 9 1 8 12 17 20 21 17 4
-3 5 -2 2 2 -3 4 -16 8 -28 9 -12 2 -17 1 -11 -2z"/>
<path d="M2100 2260 c0 -5 9 -10 20 -10 11 0 20 5 20 10 0 6 -9 10 -20 10 -11
0 -20 -4 -20 -10z"/>
<path d="M2185 2260 c-3 -5 3 -10 15 -10 12 0 18 5 15 10 -3 6 -10 10 -15 10
-5 0 -12 -4 -15 -10z"/>
<path d="M2240 2260 c0 -5 9 -10 20 -10 11 0 20 5 20 10 0 6 -9 10 -20 10 -11
0 -20 -4 -20 -10z"/>
<path d="M2865 2260 c-24 -6 -17 -8 33 -9 40 -1 61 3 57 9 -7 11 -46 11 -90 0z"/>
<path d="M3114 2258 c-3 -4 5 -5 17 -3 30 6 36 14 9 12 -12 -1 -24 -5 -26 -9z"/>
<path d="M3790 2260 c-11 -7 -7 -10 18 -10 17 0 32 5 32 10 0 13 -30 13 -50 0z"/>
<path d="M4220 2260 c0 -5 5 -10 11 -10 5 0 7 5 4 10 -3 6 -8 10 -11 10 -2 0
-4 -4 -4 -10z"/>
<path d="M2480 2212 l5 -47 3 39 c2 21 0 42 -5 47 -4 4 -6 -13 -3 -39z"/>
<path d="M1444 2210 c0 -16 4 -30 9 -30 5 0 4 -7 -3 -15 -11 -13 -10 -14 4 -9
18 7 21 29 6 39 -6 4 -8 15 -5 26 4 10 2 19 -3 19 -4 0 -8 -13 -8 -30z"/>
<path d="M3042 2220 c0 -14 2 -19 5 -12 2 6 2 18 0 25 -3 6 -5 1 -5 -13z"/>
<path d="M3113 2170 c0 -41 2 -58 4 -37 2 20 2 54 0 75 -2 20 -4 3 -4 -38z"/>
<path d="M4460 2236 c0 -2 7 -7 16 -10 8 -3 12 -2 9 4 -6 10 -25 14 -25 6z"/>
<path d="M612 2199 c-6 -15 -11 -18 -16 -11 -4 7 -13 12 -19 12 -7 0 -6 -4 3
-10 13 -9 13 -10 0 -11 -8 -1 -22 -1 -32 0 -9 1 -20 -3 -24 -10 -4 -8 -3 -9 4
-5 7 4 12 2 12 -5 0 -7 3 -10 6 -6 4 3 13 0 21 -8 21 -22 36 -19 24 4 -13 23
-6 31 25 25 19 -3 24 0 24 15 0 29 -19 36 -28 10z"/>
<path d="M4483 2190 c-1 -13 7 -17 39 -16 25 0 43 -4 46 -12 2 -7 -2 -10 -12
-6 -20 8 -21 -10 -1 -26 12 -10 15 -10 15 1 0 8 10 3 23 -13 17 -19 27 -24 38
-17 12 7 11 9 -3 9 -10 0 -29 18 -43 40 -27 43 -56 62 -63 42 -2 -7 -8 -12
-14 -12 -6 0 -8 6 -5 13 3 8 0 14 -7 14 -7 0 -13 -8 -13 -17z"/>
<path d="M3652 2180 c0 -8 3 -24 7 -34 7 -19 8 -19 13 2 4 12 2 20 -2 17 -5
-3 -11 3 -13 12 -3 12 -5 13 -5 3z"/>
<path d="M3043 2135 c0 -22 2 -30 4 -17 2 12 2 30 0 40 -3 9 -5 -1 -4 -23z"/>
<path d="M483 2133 c0 -15 13 -17 22 -3 7 11 35 2 35 -12 0 -6 -7 -7 -16 -4
-9 3 -12 2 -9 -5 4 -6 -3 -7 -22 -3 -15 4 -25 3 -21 -1 9 -10 88 -13 82 -3 -3
4 0 8 6 8 19 0 6 23 -16 27 -51 10 -61 9 -61 -4z"/>
<path d="M4612 2134 c10 -10 20 -16 22 -13 3 3 -5 11 -17 18 -21 13 -21 12 -5
-5z"/>
<path d="M436 2104 c-14 -15 -22 -33 -18 -42 4 -12 0 -14 -18 -9 -17 4 -20 3
-12 -5 8 -8 4 -19 -13 -40 -26 -30 -34 -54 -14 -43 5 4 19 -1 29 -10 13 -11
20 -13 25 -5 4 6 -3 21 -15 32 -20 19 -20 22 -6 36 14 15 18 13 44 -16 32 -35
42 -40 42 -17 0 8 -4 15 -10 15 -5 0 -10 7 -10 15 0 8 -5 15 -11 15 -6 0 -8 7
-5 17 4 9 2 19 -4 23 -7 4 -3 15 10 30 11 13 20 25 20 27 0 8 -11 1 -34 -23z"/>
<path d="M604 2108 c-18 -20 -18 -21 -1 -15 10 4 23 7 28 7 5 0 9 7 9 15 0 21
-14 19 -36 -7z"/>
<path d="M4503 2113 c9 -2 17 -9 17 -14 0 -5 8 -9 18 -9 15 1 15 2 -2 15 -11
8 -27 14 -35 14 -13 -1 -12 -2 2 -6z"/>
<path d="M3142 1999 c-1 -58 -4 -135 -7 -170 l-4 -64 10 60 c5 33 8 110 6 170
l-3 110 -2 -106z"/>
<path d="M4662 2084 c-7 -8 -8 -14 -3 -14 10 0 25 19 20 25 -2 1 -10 -3 -17
-11z"/>
<path d="M2603 2050 c0 -25 2 -35 4 -22 2 12 2 32 0 45 -2 12 -4 2 -4 -23z"/>
<path d="M2623 2050 c0 -25 2 -35 4 -22 2 12 2 32 0 45 -2 12 -4 2 -4 -23z"/>
<path d="M3123 2005 c0 -44 2 -61 4 -37 2 23 2 59 0 80 -2 20 -4 1 -4 -43z"/>
<path d="M3702 2055 c13 -12 29 -20 36 -17 15 5 16 -10 1 -25 -8 -8 -7 -13 2
-18 7 -5 10 -4 5 3 -3 6 -2 13 4 17 6 3 10 -4 10 -17 0 -15 9 -27 27 -35 30
-14 53 -3 49 24 -3 22 -44 24 -57 4 -8 -13 -9 -12 -4 5 3 13 -1 26 -10 34 -8
7 -13 15 -11 19 3 4 -4 12 -15 19 -11 7 -19 8 -19 2 0 -5 -5 -10 -11 -10 -5 0
-8 4 -5 8 3 5 -2 9 -10 9 -11 0 -9 -6 8 -22z m120 -87 c-6 -6 -16 -7 -22 -3
-9 6 -9 9 1 16 17 10 34 0 21 -13z"/>
<path d="M1280 2059 c0 -5 5 -7 10 -4 6 3 10 8 10 11 0 2 -4 4 -10 4 -5 0 -10
-5 -10 -11z"/>
<path d="M3820 2060 c0 -5 -10 -10 -22 -10 -16 0 -19 -3 -11 -11 14 -14 53 -2
53 17 0 8 -4 14 -10 14 -5 0 -10 -4 -10 -10z"/>
<path d="M4721 2059 c0 -8 -10 -25 -21 -37 -18 -19 -19 -25 -8 -44 17 -29 40
-48 51 -41 5 3 5 8 1 12 -5 3 -17 16 -27 28 -17 20 -18 24 -4 43 15 22 15 22
22 1 4 -13 11 -18 22 -14 14 5 13 7 -1 15 -9 5 -13 14 -10 20 4 6 2 8 -4 4 -6
-3 -13 2 -15 11 -4 14 -5 14 -6 2z"/>
<path d="M1366 2048 c8 -13 -15 -18 -40 -8 -21 8 -26 7 -26 -6 0 -11 6 -13 20
-9 14 4 20 2 20 -9 0 -8 -4 -18 -10 -21 -5 -3 -10 -2 -10 4 0 11 -25 9 -37 -3
-4 -4 -3 -6 4 -4 6 2 10 -1 10 -7 -1 -5 -6 -9 -12 -7 -5 2 -2 -5 7 -14 14 -15
20 -16 30 -5 11 10 9 11 -7 6 -16 -5 -17 -5 -5 3 9 7 18 8 26 1 8 -7 14 -6 19
1 3 5 1 10 -4 10 -6 0 -11 5 -11 11 0 6 9 8 20 4 16 -5 22 0 31 22 5 15 15 30
20 34 6 3 -3 6 -19 5 -17 -1 -28 -4 -26 -8z m11 -28 c-1 -11 -5 -20 -9 -20
-10 0 -10 4 -2 24 8 22 13 20 11 -4z"/>
<path d="M359 2023 c-13 -16 -12 -17 4 -4 9 7 17 15 17 17 0 8 -8 3 -21 -13z"/>
<path d="M331 1994 c0 -11 3 -14 6 -6 3 7 2 16 -1 19 -3 4 -6 -2 -5 -13z"/>
<path d="M1974 1810 c0 -113 2 -159 3 -102 2 56 2 148 0 205 -1 56 -3 10 -3
-103z"/>
<path d="M4793 1953 c-7 -3 -13 -9 -13 -15 0 -6 6 -6 15 2 12 10 16 9 20 -2 7
-16 2 -48 -8 -65 -5 -8 -4 -13 2 -13 6 0 11 1 11 3 10 63 10 75 -2 84 -7 6
-19 8 -25 6z"/>
<path d="M295 1940 c3 -5 8 -10 11 -10 2 0 4 5 4 10 0 6 -5 10 -11 10 -5 0 -7
-4 -4 -10z"/>
<path d="M420 1940 c0 -5 5 -10 10 -10 6 0 10 5 10 10 0 6 -4 10 -10 10 -5 0
-10 -4 -10 -10z"/>
<path d="M4660 1940 c0 -5 7 -10 16 -10 8 0 12 5 9 10 -3 6 -10 10 -16 10 -5
0 -9 -4 -9 -10z"/>
<path d="M290 1916 c14 -18 13 -19 -3 -13 -12 5 -17 3 -15 -5 7 -21 23 -19 37
4 7 13 10 20 6 16 -5 -4 -15 -2 -24 5 -14 11 -15 10 -1 -7z"/>
<path d="M960 1914 c0 -8 5 -12 10 -9 6 3 10 10 10 16 0 5 -4 9 -10 9 -5 0
-10 -7 -10 -16z"/>
<path d="M1148 1921 c5 -3 14 -15 19 -26 9 -15 7 -22 -5 -33 -15 -12 -15 -12
4 -3 11 5 27 18 35 27 12 16 12 17 -3 11 -10 -3 -18 -3 -18 2 0 16 13 20 31
10 14 -7 17 -6 14 3 -3 8 -23 14 -46 14 -22 1 -36 -2 -31 -5z"/>
<path d="M3900 1921 c0 -7 -4 -9 -10 -6 -6 4 -7 -1 -3 -11 6 -15 7 -15 15 1 6
9 7 19 4 22 -3 4 -6 1 -6 -6z"/>
<path d="M3930 1920 c-10 -6 -11 -10 -2 -10 6 0 12 -5 12 -11 0 -5 -4 -7 -10
-4 -15 10 -12 -11 4 -24 20 -17 86 -24 86 -10 0 6 -9 13 -20 16 -23 6 -23 7
-9 36 9 19 7 18 -10 -3 -14 -18 -16 -27 -8 -32 7 -5 3 -8 -11 -8 -20 0 -21 3
-12 20 8 14 8 20 0 20 -6 0 -8 5 -5 10 8 12 4 12 -15 0z"/>
<path d="M4064 1917 c-9 -25 0 -51 19 -55 21 -4 22 25 2 52 -13 17 -15 17 -21
3z"/>
<path d="M4140 1910 c0 -11 4 -20 9 -20 11 0 22 26 14 34 -12 12 -23 5 -23
-14z"/>
<path d="M1049 1902 c-2 -7 -15 -14 -28 -15 -42 -3 -58 -108 -17 -115 14 -3
17 0 12 12 -3 9 -9 23 -12 31 -4 9 6 26 26 45 17 16 30 35 28 42 -4 10 -6 10
-9 0z"/>
<path d="M1124 1898 c-4 -7 -4 -10 1 -6 4 4 15 2 24 -5 14 -11 14 -10 2 6 -16
20 -18 21 -27 5z"/>
<path d="M305 1880 c-4 -6 -15 -8 -24 -5 -11 3 -18 0 -18 -7 0 -21 53 -16 54
5 2 19 -3 22 -12 7z"/>
<path d="M1125 1870 c3 -5 8 -10 11 -10 2 0 4 5 4 10 0 6 -5 10 -11 10 -5 0
-7 -4 -4 -10z"/>
<path d="M1072 1857 c-18 -21 -18 -39 1 -42 9 -2 15 1 12 5 -3 5 2 13 11 18 9
5 14 14 10 21 -9 14 -21 14 -34 -2z m-1 -30 c-10 -9 -11 -8 -5 6 3 10 9 15 12
12 3 -3 0 -11 -7 -18z"/>
<path d="M4836 1861 c-8 -12 4 -71 14 -71 5 0 10 6 13 13 5 17 -4 47 -15 47
-5 0 -6 5 -3 10 3 6 4 10 1 10 -3 0 -7 -4 -10 -9z"/>
<path d="M268 1825 c-6 -14 -15 -25 -20 -25 -4 0 -8 -9 -8 -21 0 -13 -4 -18
-12 -13 -10 6 -10 4 0 -7 16 -17 27 -5 45 49 16 46 13 56 -5 17z"/>
<path d="M4050 1839 c0 -5 -6 -7 -12 -3 -9 5 -9 3 1 -9 15 -19 33 -13 24 8 -6
17 -13 20 -13 4z"/>
<path d="M4137 1816 c-4 -10 -1 -13 9 -9 7 3 14 9 14 14 0 14 -17 10 -23 -5z"/>
<path d="M300 1785 c0 -9 5 -15 11 -13 6 2 11 8 11 13 0 5 -5 11 -11 13 -6 2
-11 -4 -11 -13z"/>
<path d="M1044 1770 c1 -16 7 -35 15 -42 9 -8 11 -9 7 -1 -3 6 2 16 11 22 18
10 16 12 -9 15 -7 0 -13 6 -13 13 0 6 -3 14 -6 17 -3 3 -5 -8 -5 -24z"/>
<path d="M4069 1796 c-1 -3 -2 -12 -3 -18 -1 -7 -7 -12 -14 -10 -15 3 -16 -14
-2 -23 6 -4 7 -11 4 -17 -4 -7 -2 -8 4 -4 6 4 8 14 5 23 -5 12 -3 14 8 8 8 -4
11 -5 7 0 -4 4 -3 14 3 21 7 8 7 14 -1 19 -5 3 -11 4 -11 1z"/>
<path d="M4800 1776 c0 -22 3 -27 11 -19 8 8 8 16 0 30 -9 16 -10 14 -11 -11z"/>
<path d="M2493 1730 c0 -25 2 -35 4 -22 2 12 2 32 0 45 -2 12 -4 2 -4 -23z"/>
<path d="M2623 1730 c0 -25 2 -35 4 -22 2 12 2 32 0 45 -2 12 -4 2 -4 -23z"/>
<path d="M4882 1753 c1 -4 -3 -18 -11 -31 -7 -13 -11 -30 -9 -39 2 -12 7 -11
23 8 11 12 14 19 8 15 -16 -9 -16 -1 -3 24 7 13 7 21 0 25 -6 4 -9 3 -8 -2z"/>
<path d="M995 1730 c-5 -15 0 -28 17 -44 12 -12 28 -31 34 -42 9 -15 15 -16
24 -7 17 16 5 43 -20 43 -15 0 -22 8 -27 30 -7 38 -20 47 -28 20z"/>
<path d="M4105 1737 c-3 -9 -7 -24 -10 -33 -3 -11 0 -14 12 -12 21 4 29 36 14
51 -7 7 -12 5 -16 -6z"/>
<path d="M1084 1715 c2 -33 21 -52 30 -30 4 11 2 14 -6 9 -7 -5 -9 -2 -5 9 3
8 0 20 -7 26 -10 8 -13 5 -12 -14z"/>
<path d="M4023 1729 c-6 -6 -9 -18 -6 -27 4 -9 2 -13 -4 -9 -6 4 -13 0 -17 -8
-3 -9 0 -15 10 -15 8 0 17 7 20 15 4 9 15 13 28 11 13 -2 23 1 23 8 0 7 -10
12 -21 12 -12 -1 -20 5 -18 12 3 15 -1 15 -15 1z"/>
<path d="M223 1710 c5 -29 13 -33 13 -5 0 14 -4 25 -8 25 -4 0 -7 -9 -5 -20z"/>
<path d="M300 1690 c0 -42 14 -54 25 -20 7 23 -2 60 -16 60 -5 0 -9 -18 -9
-40z"/>
<path d="M1043 1706 c0 -7 6 -13 14 -13 7 0 13 4 13 8 0 4 -6 9 -13 12 -8 3
-14 0 -14 -7z"/>
<path d="M1120 1670 c0 -5 5 -10 11 -10 5 0 7 5 4 10 -3 6 -8 10 -11 10 -2 0
-4 -4 -4 -10z"/>
<path d="M4053 1673 c-16 -6 -17 -29 -1 -39 10 -7 38 20 38 38 0 9 -18 9 -37
1z"/>
<path d="M980 1631 c0 -22 16 -36 24 -22 8 12 -3 41 -15 41 -5 0 -9 -9 -9 -19z"/>
<path d="M1132 1637 c0 -7 -3 -22 -6 -35 -4 -20 -3 -21 16 -11 18 9 20 9 15
-4 -6 -15 20 -33 31 -22 3 3 0 5 -7 5 -8 0 -11 7 -7 15 5 14 -5 19 -31 16 -17
-2 -16 4 2 22 12 12 12 16 1 20 -7 3 -13 0 -14 -6z"/>
<path d="M4116 1634 c-7 -19 2 -37 15 -29 12 8 12 45 0 45 -5 0 -12 -7 -15
-16z"/>
<path d="M240 1625 c0 -8 5 -15 10 -15 6 0 10 7 10 15 0 8 -4 15 -10 15 -5 0
-10 -7 -10 -15z"/>
<path d="M3962 1628 c-9 -9 -9 -15 1 -27 10 -12 9 -14 -5 -8 -10 3 -20 1 -24
-5 -4 -7 -3 -8 4 -4 7 4 12 3 12 -3 0 -5 -6 -12 -12 -14 -9 -4 -10 -6 -1 -6 6
-1 19 6 27 15 9 8 21 12 27 8 8 -4 9 -3 5 5 -4 6 0 14 8 17 20 8 20 20 1 28
-10 4 -15 1 -13 -9 3 -13 0 -15 -24 -15 -9 0 -8 3 2 10 8 5 12 11 9 14 -3 3
-11 0 -17 -6z"/>
<path d="M1100 1619 c0 -5 5 -7 10 -4 6 3 10 8 10 11 0 2 -4 4 -10 4 -5 0 -10
-5 -10 -11z"/>
<path d="M280 1610 c0 -5 5 -10 11 -10 5 0 7 5 4 10 -3 6 -8 10 -11 10 -2 0
-4 -4 -4 -10z"/>
<path d="M2498 1580 c3 -28 8 -37 18 -33 16 6 19 23 4 23 -5 0 -10 9 -10 19 0
11 -3 22 -8 25 -4 2 -6 -13 -4 -34z"/>
<path d="M2593 1585 c0 -22 2 -30 4 -17 2 12 2 30 0 40 -3 9 -5 -1 -4 -23z"/>
<path d="M2853 1613 c-20 -7 -15 -23 7 -23 11 0 20 4 20 9 0 13 -12 19 -27 14z"/>
<path d="M4820 1606 c0 -8 5 -18 10 -21 6 -3 10 1 10 9 0 8 -4 18 -10 21 -5 3
-10 -1 -10 -9z"/>
<path d="M4895 1610 c-3 -5 -1 -10 4 -10 6 0 11 5 11 10 0 6 -2 10 -4 10 -3 0
-8 -4 -11 -10z"/>
<path d="M425 1600 c-19 -8 -19 -9 3 -9 12 -1 22 4 22 9 0 6 -1 10 -2 9 -2 0
-12 -4 -23 -9z"/>
<path d="M2000 1600 c0 -5 -7 -10 -15 -10 -21 0 -19 -17 4 -30 18 -9 20 -7 19
20 -1 27 -8 45 -8 20z"/>
<path d="M2300 1600 c0 -5 5 -10 10 -10 6 0 10 5 10 10 0 6 -4 10 -10 10 -5 0
-10 -4 -10 -10z"/>
<path d="M2340 1600 c0 -5 5 -10 10 -10 6 0 10 5 10 10 0 6 -4 10 -10 10 -5 0
-10 -4 -10 -10z"/>
<path d="M2610 1590 c0 -13 7 -20 20 -20 11 0 20 4 20 10 0 5 -9 14 -20 20
-17 9 -20 8 -20 -10z"/>
<path d="M2714 1598 c-8 -13 -4 -16 36 -23 19 -3 37 -10 38 -16 4 -11 42 -12
42 -1 0 12 -109 51 -116 40z"/>
<path d="M2940 1599 c0 -6 7 -8 16 -5 12 5 15 2 10 -11 -6 -14 -4 -15 5 -6 6
6 8 16 5 22 -9 14 -36 14 -36 0z"/>
<path d="M3020 1601 c0 -6 -6 -11 -14 -11 -21 0 -27 -27 -8 -35 9 -3 18 -1 20
4 2 6 10 11 18 11 18 0 18 14 -1 30 -10 9 -15 9 -15 1z m4 -25 c-10 -8 -21
-12 -24 -10 -5 6 21 24 34 24 6 0 1 -6 -10 -14z"/>
<path d="M3112 1583 c0 -24 3 -30 16 -29 21 4 29 36 9 36 -9 0 -17 6 -20 13
-2 6 -4 -2 -5 -20z"/>
<path d="M4663 1595 c11 -7 25 -11 33 -8 22 8 6 23 -24 23 -25 -1 -26 -2 -9
-15z"/>
<path d="M540 1592 c-19 -2 -39 -8 -44 -13 -11 -10 62 -10 109 0 l30 7 -30 5
c-16 2 -46 3 -65 1z"/>
<path d="M2127 1592 c-48 -2 -58 -6 -53 -18 3 -9 6 -18 6 -20 0 -2 7 -4 16 -4
14 0 14 3 4 15 -11 13 -8 15 19 15 17 0 30 -3 30 -7 -3 -20 3 -23 21 -13 17 9
30 6 65 -14 32 -17 45 -21 45 -11 0 7 6 16 13 18 6 3 -3 3 -21 0 -23 -4 -32
-2 -30 6 5 20 -53 36 -115 33z"/>
<path d="M4515 1589 c-26 -5 -22 -7 27 -13 31 -5 61 -5 66 -2 6 3 13 1 15 -4
3 -6 4 -5 3 2 -3 16 -69 26 -111 17z"/>
<path d="M273 1575 c-7 -8 -13 -21 -13 -30 0 -13 3 -13 20 -3 11 7 20 21 20
30 0 21 -10 22 -27 3z"/>
<path d="M722 1569 c5 -16 78 -25 78 -10 0 6 -11 11 -24 11 -13 0 -32 3 -42 7
-12 4 -15 2 -12 -8z"/>
<path d="M2886 1573 c-12 -12 -6 -21 19 -25 14 -3 25 -2 25 3 0 12 -36 30 -44
22z"/>
<path d="M4353 1572 c-18 -2 -33 -7 -33 -13 0 -11 60 -12 78 0 19 11 -2 17
-45 13z"/>
<path d="M2330 1559 c0 -4 9 -11 21 -14 13 -5 18 -12 14 -22 -4 -13 -3 -14 10
-3 8 7 15 9 15 4 0 -4 5 -3 12 4 14 14 54 16 62 3 4 -5 1 -11 -6 -13 -8 -3 -7
-6 3 -10 10 -4 15 1 17 18 1 20 -3 24 -28 24 -17 0 -30 4 -30 9 0 5 -20 9 -45
9 -25 -1 -45 -5 -45 -9z"/>
<path d="M3970 1560 c-10 -6 -11 -10 -2 -10 7 0 12 -15 12 -41 0 -28 4 -39 13
-36 14 4 10 69 -5 78 -6 4 -5 9 3 12 8 3 10 6 4 6 -5 0 -17 -4 -25 -9z"/>
<path d="M4820 1560 c0 -5 7 -10 15 -10 8 0 15 5 15 10 0 6 -7 10 -15 10 -8 0
-15 -4 -15 -10z"/>
<path d="M4881 1563 c4 -24 -4 -33 -27 -33 -14 0 -23 -4 -19 -10 12 -19 -11
-10 -25 10 -17 23 -50 27 -50 5 0 -32 90 -53 113 -27 20 24 28 50 16 57 -5 4
-9 3 -8 -2z m-86 -43 c3 -6 -1 -7 -9 -4 -18 7 -21 14 -7 14 6 0 13 -4 16 -10z"/>
<path d="M223 1545 c0 -8 4 -12 9 -9 5 3 6 10 3 15 -9 13 -12 11 -12 -6z"/>
<path d="M631 1541 c-12 -12 -24 -15 -37 -10 -10 4 -22 8 -26 8 -12 1 -10 -27
2 -34 6 -4 7 1 3 12 -6 16 -5 16 10 4 9 -7 15 -17 12 -20 -2 -4 2 -8 10 -8 11
0 12 4 4 13 -8 9 -5 11 12 7 14 -4 20 -2 16 4 -4 6 1 14 10 18 10 3 19 2 21
-3 2 -6 13 -8 25 -5 20 4 20 3 -3 -11 -14 -8 -20 -16 -15 -16 6 0 3 -5 -5 -10
-12 -8 -9 -10 13 -10 16 0 26 -4 23 -8 -2 -4 5 -9 17 -9 20 -2 20 -1 4 8 -11
6 -16 18 -13 33 2 13 1 29 -4 36 -12 20 -59 21 -79 1z m79 -35 c0 -3 -4 -8
-10 -11 -5 -3 -10 -1 -10 4 0 6 5 11 10 11 6 0 10 -2 10 -4z"/>
<path d="M4425 1550 c-19 -7 -19 -7 0 -19 19 -12 19 -12 -1 -8 -12 2 -21 -1
-21 -8 0 -7 8 -10 20 -7 14 3 18 1 13 -6 -4 -7 -15 -12 -24 -13 -11 0 -12 -2
-4 -6 6 -2 9 -10 6 -16 -3 -7 3 -1 14 13 11 13 19 27 17 30 -8 13 13 30 28 24
9 -3 14 -10 11 -15 -3 -5 0 -9 7 -9 7 0 4 -7 -7 -16 -18 -15 -18 -15 3 -5 12
6 28 8 36 6 7 -3 20 2 28 12 13 16 12 17 -3 5 -9 -8 -22 -10 -29 -6 -8 4 -2
11 17 20 31 13 22 18 -11 5 -13 -5 -23 -3 -30 6 -12 17 -44 23 -70 13z"/>
<path d="M320 1536 c0 -9 -7 -13 -20 -11 -17 3 -18 1 -7 -16 6 -10 13 -15 15
-9 2 6 8 8 13 4 5 -3 8 0 7 7 -2 6 3 14 11 17 9 3 11 0 6 -8 -5 -9 -4 -11 3
-6 19 12 14 36 -8 36 -11 0 -20 -6 -20 -14z"/>
<path d="M500 1540 c0 -5 5 -10 10 -10 6 0 10 5 10 10 0 6 -4 10 -10 10 -5 0
-10 -4 -10 -10z"/>
<path d="M1126 1543 c-9 -10 -7 -63 3 -63 11 0 20 59 11 65 -4 3 -10 2 -14 -2z"/>
<path d="M1164 1538 c-5 -7 -2 -8 6 -3 7 4 15 2 20 -5 5 -9 8 -8 13 2 6 17
-29 22 -39 6z"/>
<path d="M2643 1542 c-13 -2 -23 -10 -23 -19 0 -11 3 -13 13 -5 9 8 16 6 25
-8 9 -14 9 -21 0 -26 -6 -4 -8 -3 -4 4 3 6 2 13 -4 17 -12 7 -13 -15 -1 -33 6
-11 10 -11 18 0 20 26 27 41 15 34 -7 -4 -12 -1 -12 6 0 16 46 22 55 8 3 -6
13 -10 21 -10 8 0 12 5 9 10 -4 6 -10 8 -15 5 -4 -3 -10 2 -13 9 -6 14 -33 17
-84 8z"/>
<path d="M3915 1528 c2 -10 -4 -23 -13 -28 -12 -8 -13 -10 -2 -7 8 2 19 13 25
25 5 12 16 20 23 17 7 -3 10 -1 7 4 -10 18 -43 8 -40 -11z"/>
<path d="M4600 1540 c0 -5 5 -10 10 -10 6 0 10 5 10 10 0 6 -4 10 -10 10 -5 0
-10 -4 -10 -10z"/>
<path d="M428 1533 c-24 -6 -23 -23 1 -23 26 0 51 10 51 21 0 9 -22 10 -52 2z"/>
<path d="M1990 1525 c0 -9 5 -15 11 -13 6 2 11 8 11 13 0 5 -5 11 -11 13 -6 2
-11 -4 -11 -13z"/>
<path d="M3117 1532 c-9 -2 -15 -8 -12 -13 8 -12 45 -12 45 0 0 13 -12 18 -33
13z"/>
<path d="M4640 1531 c0 -9 34 -21 60 -21 11 1 10 4 -4 15 -22 16 -56 20 -56 6z"/>
<path d="M379 1522 c12 -8 11 -11 -3 -15 -15 -4 -15 -5 1 -3 19 1 21 19 1 24
-10 3 -10 1 1 -6z"/>
<path d="M2306 1521 c9 -9 34 -9 34 -1 0 5 -9 8 -20 7 -10 -1 -17 -3 -14 -6z"/>
<path d="M4725 1520 c-7 -11 22 -26 32 -16 4 3 -2 6 -13 6 -16 0 -17 2 -4 10
9 6 10 10 3 10 -6 0 -15 -5 -18 -10z"/>
<path d="M247 1506 c-4 -11 -6 -20 -4 -22 6 -7 47 9 47 18 0 6 -6 8 -14 5 -8
-3 -16 -1 -19 6 -2 6 -7 3 -10 -7z"/>
<path d="M2592 1500 c0 -14 2 -19 5 -12 2 6 2 18 0 25 -3 6 -5 1 -5 -13z"/>
<path d="M2709 1507 c6 -8 7 -18 3 -22 -4 -5 -1 -5 6 -1 10 6 10 11 1 22 -6 8
-14 14 -16 14 -3 0 0 -6 6 -13z"/>
<path d="M640 1500 c-9 -6 -10 -10 -3 -10 6 0 15 5 18 10 8 12 4 12 -15 0z"/>
<path d="M773 1498 c2 -7 10 -13 17 -13 7 0 15 6 18 13 2 7 -5 12 -18 12 -13
0 -20 -5 -17 -12z"/>
<path d="M2442 1494 c9 -9 21 -15 27 -13 6 2 -2 10 -17 17 -25 11 -25 11 -10
-4z"/>
<path d="M4313 1498 c2 -7 10 -13 17 -13 7 0 15 6 18 13 2 7 -5 12 -18 12 -13
0 -20 -5 -17 -12z"/>
<path d="M1214 1485 c-5 -12 -9 -13 -21 -3 -11 9 -16 9 -24 -3 -5 -8 -9 -17
-9 -21 0 -11 52 -4 75 11 17 11 18 12 1 7 -13 -5 -17 -2 -12 9 3 8 3 15 0 15
-2 0 -7 -7 -10 -15z"/>
<path d="M2013 1485 c0 -11 4 -12 13 -4 13 11 29 -4 20 -19 -3 -5 8 -8 24 -8
23 0 27 2 18 13 -7 9 -7 13 0 13 6 0 15 -7 20 -17 11 -18 42 -11 41 9 0 10 -2
10 -6 1 -2 -7 -9 -13 -14 -13 -6 0 -8 4 -5 9 8 13 -36 22 -50 10 -8 -6 -15 -4
-24 6 -16 19 -37 19 -37 0z"/>
<path d="M3075 1491 c-3 -5 -2 -12 3 -15 5 -3 9 1 9 9 0 17 -3 19 -12 6z"/>
<path d="M2978 1473 c-7 -9 -6 -14 5 -19 19 -7 40 4 32 17 -4 5 1 9 10 9 10 0
13 -5 9 -12 -4 -7 -3 -8 4 -4 7 4 12 3 12 -2 0 -5 7 -9 16 -9 12 0 10 5 -7 18
-27 20 -65 21 -81 2z m22 -3 c0 -5 -5 -10 -11 -10 -5 0 -7 5 -4 10 3 6 8 10
11 10 2 0 4 -4 4 -10z"/>
<path d="M2166 1467 c3 -9 18 -14 39 -14 27 1 32 4 23 14 -12 15 -22 17 -13 3
7 -11 -23 -9 -42 3 -9 5 -11 3 -7 -6z"/>
<path d="M2894 1468 c-3 -5 -10 -6 -15 -3 -5 4 -17 1 -26 -5 -16 -9 -15 -10 5
-5 14 4 22 2 22 -6 0 -7 7 -4 15 7 13 16 14 16 9 2 -5 -13 -1 -18 14 -18 12 0
24 5 27 10 3 6 -1 10 -10 10 -9 0 -14 4 -11 8 3 5 -2 9 -10 9 -8 0 -17 -4 -20
-9z"/>
<path d="M3891 1463 c6 -6 16 -10 24 -7 7 3 16 1 20 -5 10 -17 27 -13 23 6 -2
13 -13 18 -40 18 -28 1 -35 -2 -27 -12z"/>
<path d="M1983 1453 c-3 -10 -7 -20 -9 -23 -1 -3 8 -6 21 -6 18 -1 21 2 18 17
-8 27 -22 33 -30 12z"/>
<path d="M2481 1467 c2 -1 12 -9 22 -16 15 -12 17 -12 11 3 -3 9 -13 16 -22
16 -8 0 -13 -1 -11 -3z"/>
<path d="M3120 1461 c0 -5 -7 -16 -15 -25 -14 -14 -13 -15 13 -13 21 1 28 6
24 16 -3 9 -1 12 6 7 8 -5 10 -2 6 8 -7 17 -34 22 -34 7z"/>
<path d="M2256 1448 c3 -5 10 -6 15 -3 13 9 11 12 -6 12 -8 0 -12 -4 -9 -9z"/>
<path d="M783 1437 c-3 -6 -1 -7 5 -3 6 3 14 1 17 -5 4 -5 13 -8 20 -5 7 2 15
-4 19 -16 4 -18 7 -19 20 -8 11 8 16 9 16 1 0 -16 36 -13 50 4 10 13 11 18 1
28 -10 9 -15 8 -27 -7 -14 -19 -14 -19 -34 2 -22 23 -40 29 -40 12 0 -5 -5
-10 -11 -10 -5 0 -8 4 -5 8 3 5 -2 9 -10 9 -8 0 -18 -5 -21 -10z m76 -11 c9
-11 9 -16 -1 -22 -7 -4 -10 -4 -6 1 4 4 3 14 -3 22 -6 7 -9 13 -6 13 2 0 10
-6 16 -14z"/>
<path d="M4180 1444 c0 -7 27 -34 34 -34 3 0 6 9 6 20 0 13 -7 20 -20 20 -11
0 -20 -3 -20 -6z"/>
<path d="M4263 1443 c-7 -3 -13 -9 -13 -15 0 -6 8 -5 18 3 15 13 16 12 3 -4
-8 -9 -16 -15 -19 -12 -3 3 -13 -2 -23 -11 -11 -10 -25 -14 -36 -10 -16 6 -16
5 -3 -8 16 -16 60 -12 60 6 0 5 3 7 8 4 4 -2 22 8 41 23 22 18 28 28 18 28 -9
0 -14 -4 -11 -9 7 -11 -9 -10 -21 1 -6 5 -16 6 -22 4z"/>
<path d="M2898 1423 c12 -2 32 -2 45 0 12 2 2 4 -23 4 -25 0 -35 -2 -22 -4z"/>
<path d="M3831 1396 c-7 -9 -10 -16 -5 -16 5 0 1 -6 -8 -13 -15 -12 -15 -14 5
-26 18 -11 20 -11 10 0 -10 10 -10 16 3 30 9 10 14 23 12 30 -2 7 -8 6 -17 -5z"/>
<path d="M1280 1379 c0 -5 5 -7 10 -4 6 3 10 8 10 11 0 2 -4 4 -10 4 -5 0 -10
-5 -10 -11z"/>
<path d="M940 1359 c0 -6 -5 -7 -12 -3 -7 4 -8 3 -4 -4 9 -14 33 -16 40 -3 3
5 -1 11 -9 15 -8 3 -15 1 -15 -5z"/>
<path d="M1293 1348 c-10 -18 -13 -38 -4 -38 4 0 13 6 20 13 9 7 11 7 8 1 -4
-7 -1 -14 7 -17 10 -4 12 0 9 14 -3 10 -13 19 -22 19 -14 0 -14 2 -1 10 9 6
10 10 3 10 -6 0 -15 -6 -20 -12z"/>
<path d="M3799 1332 c9 -7 10 -12 2 -16 -6 -4 -11 -13 -11 -19 0 -8 3 -8 9 2
5 8 11 9 15 3 3 -5 -5 -26 -19 -46 -27 -39 -31 -56 -15 -56 19 0 51 83 40 105
-1 3 -3 10 -4 17 0 6 -8 13 -16 15 -12 4 -12 3 -1 -5z"/>
<path d="M1290 1300 c-12 -7 -10 -9 7 -7 12 0 19 5 17 9 -6 10 -6 10 -24 -2z"/>
<path d="M1040 1289 c0 -5 -6 -7 -12 -3 -10 6 -10 5 -1 -8 7 -8 11 -17 8 -20
-3 -2 2 -5 10 -5 16 0 28 24 19 38 -7 12 -24 11 -24 -2z"/>
<path d="M4050 1285 c0 -2 9 -9 20 -15 16 -9 18 -8 14 5 -5 13 -34 22 -34 10z"/>
<path d="M1301 1262 c-1 -13 9 -38 22 -55 12 -17 28 -43 35 -57 7 -14 10 -17
8 -8 -3 11 0 17 7 15 7 -1 11 4 9 11 -1 8 3 12 10 10 16 -6 23 -29 8 -26 -7 2
-15 -3 -17 -9 -6 -15 13 -17 22 -3 3 6 11 10 16 10 6 0 7 -5 3 -12 -5 -7 -3
-8 5 -3 9 5 7 13 -8 29 -12 12 -18 25 -15 29 4 4 -1 9 -10 13 -9 3 -14 10 -11
14 3 5 1 11 -4 14 -20 13 -20 -13 -1 -27 l21 -14 -21 -6 c-11 -3 -18 -1 -15 3
3 5 -5 17 -18 27 -12 10 -27 29 -34 43 l-12 25 0 -23z"/>
<path d="M1097 1264 c-14 -14 -7 -35 11 -32 9 2 17 10 17 17 0 16 -18 25 -28
15z"/>
<path d="M3741 1241 c-6 -10 -8 -21 -4 -24 3 -3 -2 -14 -12 -23 -16 -17 -16
-18 4 -26 11 -4 21 -13 21 -20 0 -8 -3 -9 -8 -3 -6 10 -20 11 -39 5 -5 -1 -12
-1 -18 0 -5 1 -6 -2 -2 -6 14 -14 66 -13 78 2 9 11 9 14 -1 14 -7 0 -10 7 -7
14 4 11 1 13 -10 9 -13 -5 -12 0 6 25 12 18 17 32 11 32 -6 0 -8 5 -5 10 3 6
4 10 1 10 -3 0 -10 -8 -15 -19z"/>
<path d="M1281 1166 c-1 -29 2 -37 10 -29 8 8 8 19 1 40 -10 28 -10 28 -11
-11z"/>
<path d="M4005 1191 c-2 -5 3 -15 12 -22 9 -8 14 -9 10 -2 -4 6 -2 13 5 15 8
3 6 7 -5 11 -9 3 -19 2 -22 -2z"/>
<path d="M1095 1179 c-4 -6 -4 -13 -1 -16 3 -4 6 -1 6 6 0 7 5 9 12 5 7 -4 8
-3 4 4 -9 15 -13 15 -21 1z"/>
<path d="M3825 1177 c-4 -10 -5 -21 -1 -24 10 -10 18 4 13 24 -4 17 -4 17 -12
0z"/>
<path d="M4580 1181 c0 -4 -11 -7 -25 -6 -16 2 -23 -1 -18 -8 4 -6 0 -8 -9 -4
-12 4 -14 1 -10 -16 3 -12 7 -16 10 -9 3 9 7 10 17 2 9 -8 15 -8 20 0 3 5 15
10 26 10 11 0 22 7 26 16 5 13 7 13 14 2 6 -9 9 -9 9 -1 0 19 -20 26 -26 9 -3
-9 -12 -16 -20 -16 -8 0 -11 6 -8 15 4 8 3 15 0 15 -3 0 -6 -4 -6 -9z m-15
-30 c-3 -6 -11 -8 -17 -5 -6 4 -5 9 3 15 16 10 23 4 14 -10z"/>
<path d="M300 1165 c-26 -10 -34 -18 -33 -34 4 -30 -14 -72 -29 -69 -7 2 -12
-3 -10 -10 1 -7 -11 -18 -28 -24 -32 -11 -36 -31 -7 -36 10 -2 37 16 62 42 36
35 45 51 43 73 -3 25 0 28 22 25 23 -2 23 -2 6 9 -15 9 -16 13 -5 20 18 11 32
11 25 0 -3 -5 1 -14 9 -21 10 -9 15 -9 15 -1 0 6 -4 11 -10 11 -5 0 -9 5 -7
11 3 17 -14 18 -53 4z m-5 -25 c-3 -5 -11 -10 -16 -10 -6 0 -7 5 -4 10 3 6 11
10 16 10 6 0 7 -4 4 -10z"/>
<path d="M544 1172 c-6 -4 -4 -13 8 -24 10 -10 18 -13 18 -7 0 8 4 8 15 -1 8
-6 23 -9 35 -5 11 4 20 2 20 -4 0 -6 4 -11 8 -11 5 0 9 7 9 15 0 8 -3 13 -5
10 -3 -3 -11 0 -19 6 -9 9 -13 8 -13 0 0 -6 -5 -11 -11 -11 -5 0 -8 4 -5 8 3
5 -5 8 -17 7 -29 -3 -42 5 -26 16 8 5 10 9 4 9 -5 0 -15 -4 -21 -8z"/>
<path d="M4765 1171 c-6 -6 -23 -17 -40 -25 l-30 -16 31 0 c31 0 60 21 47 33
-3 4 1 7 9 7 19 0 30 -24 22 -45 -4 -8 -1 -15 6 -15 6 0 8 5 5 10 -3 6 -1 10
5 10 6 0 8 5 4 12 -5 8 -2 9 10 5 11 -4 15 -3 11 4 -4 6 -13 8 -20 5 -7 -2
-16 2 -19 10 -6 16 -27 19 -41 5z m0 -21 c-3 -5 -12 -10 -18 -10 -7 0 -6 4 3
10 19 12 23 12 15 0z"/>
<path d="M494 1156 c-10 -8 -16 -17 -13 -20 3 -3 14 3 24 14 21 23 17 26 -11
6z"/>
<path d="M387 1153 c-14 -13 -7 -23 16 -22 17 1 18 2 4 6 -9 2 -15 9 -12 14 7
10 1 12 -8 2z"/>
<path d="M4490 1151 c0 -6 -6 -11 -12 -10 -26 3 -34 -2 -34 -20 0 -15 4 -17
16 -11 23 13 44 39 36 47 -3 3 -6 1 -6 -6z"/>
<path d="M4658 1153 c7 -3 16 -2 19 1 4 3 -2 6 -13 5 -11 0 -14 -3 -6 -6z"/>
<path d="M515 1140 c-3 -6 1 -7 9 -4 18 7 21 14 7 14 -6 0 -13 -4 -16 -10z"/>
<path d="M3780 1140 c0 -5 5 -10 11 -10 5 0 7 5 4 10 -3 6 -8 10 -11 10 -2 0
-4 -4 -4 -10z"/>
<path d="M1200 1129 c0 -5 -6 -7 -12 -3 -9 5 -9 2 1 -9 18 -23 31 -21 31 3 0
11 -4 20 -10 20 -5 0 -10 -5 -10 -11z"/>
<path d="M3900 1121 c0 -10 6 -21 14 -24 8 -3 12 -18 11 -39 -3 -28 0 -34 18
-36 12 0 17 2 11 6 -6 4 -14 17 -18 29 -6 18 -4 22 9 17 9 -4 14 -13 11 -21
-4 -8 -1 -11 5 -8 6 4 8 14 4 22 -3 10 3 22 15 30 19 14 19 40 -1 27 -5 -3 -7
-9 -4 -14 7 -11 -31 -23 -45 -15 -8 5 -7 12 2 23 10 12 10 14 1 8 -7 -4 -13
-2 -13 3 0 6 -4 11 -10 11 -5 0 -10 -9 -10 -19z"/>
<path d="M1126 1121 c-4 -5 3 -16 15 -25 12 -8 18 -19 15 -25 -9 -14 8 -44 26
-47 22 -3 16 63 -7 84 -18 16 -18 16 -4 -2 13 -18 12 -19 -4 -13 -10 4 -21 7
-23 7 -3 0 -3 4 1 9 3 5 1 12 -4 15 -5 4 -12 2 -15 -3z m56 -71 c-8 -21 -9
-22 -16 -5 -4 11 -2 22 6 26 17 11 20 6 10 -21z"/>
<path d="M1443 1115 c0 -8 4 -12 9 -9 5 3 6 10 3 15 -9 13 -12 11 -12 -6z"/>
<path d="M3665 1120 c-3 -5 -3 -10 2 -10 4 0 1 -5 -7 -10 -9 -6 -11 -10 -3
-10 7 0 10 -7 7 -15 -4 -8 -2 -15 3 -15 5 0 9 16 9 35 0 38 -1 40 -11 25z"/>
<path d="M4873 1112 c9 -10 15 -27 13 -39 -4 -17 1 -20 27 -19 17 1 32 7 33
14 1 7 0 8 -2 3 -6 -11 -44 18 -44 32 0 5 7 4 15 -3 9 -7 17 -11 19 -9 2 2 -8
13 -22 23 -14 11 -22 14 -18 8 4 -7 2 -12 -3 -12 -6 0 -11 5 -11 10 0 6 -5 10
-12 10 -7 0 -5 -7 5 -18z m42 -42 c3 -5 2 -10 -4 -10 -5 0 -13 5 -16 10 -3 6
-2 10 4 10 5 0 13 -4 16 -10z"/>
<path d="M205 1100 c-10 -11 -22 -17 -26 -14 -5 3 -9 1 -9 -4 0 -5 -9 -12 -20
-15 -11 -3 -20 -11 -20 -19 0 -9 3 -9 8 -2 4 6 15 10 25 8 9 -1 17 2 17 8 0 6
6 8 13 6 17 -7 48 25 38 40 -6 9 -12 7 -26 -8z m25 -4 c0 -2 -7 -7 -16 -10 -8
-3 -12 -2 -9 4 6 10 25 14 25 6z"/>
<path d="M660 1100 c0 -5 5 -10 11 -10 5 0 7 5 4 10 -3 6 -8 10 -11 10 -2 0
-4 -4 -4 -10z"/>
<path d="M712 1083 c23 -6 30 -29 12 -44 -11 -9 -18 -9 -26 -1 -7 7 -8 12 -2
12 5 0 -4 7 -20 15 -35 19 -45 13 -20 -12 41 -41 51 -45 73 -31 12 7 21 18 21
25 0 7 6 13 13 13 6 1 1 7 -13 15 -14 8 -32 14 -40 13 -11 0 -11 -1 2 -5z"/>
<path d="M1233 1079 c-13 -17 -14 -79 -1 -79 13 0 20 24 16 61 -2 27 -5 30
-15 18z"/>
<path d="M3867 1070 c-6 -25 8 -70 22 -70 12 0 7 68 -6 81 -7 7 -12 3 -16 -11z"/>
<path d="M4380 1081 c0 -6 -5 -10 -11 -8 -6 1 -14 -4 -16 -10 -3 -7 0 -13 7
-13 6 0 8 5 4 12 -4 7 -3 8 4 4 6 -4 9 -13 5 -21 -3 -8 -1 -15 5 -15 9 0 12 8
21 45 1 5 -2 11 -8 13 -6 2 -11 -1 -11 -7z"/>
<path d="M4832 1068 c3 -7 13 -15 22 -16 12 -3 17 1 14 10 -3 7 -13 15 -22 16
-12 3 -17 -1 -14 -10z"/>
<path d="M4445 1058 c-19 -11 -55 -47 -55 -55 0 -11 61 30 70 47 12 23 12 23
-15 8z"/>
<path d="M4964 1059 c-4 -7 -3 -9 4 -5 5 3 13 0 15 -6 4 -9 6 -10 6 -1 1 17
-16 25 -25 12z"/>
<path d="M1461 1046 c-6 -7 -13 -27 -15 -44 -2 -24 0 -29 12 -24 11 4 14 1 9
-10 -3 -9 0 -19 8 -21 7 -3 15 3 18 15 6 21 34 20 29 -2 -2 -7 5 -22 15 -33
15 -17 15 -19 2 -15 -9 4 -16 1 -16 -8 0 -7 5 -10 11 -7 6 4 5 0 -2 -9 -7 -9
-9 -19 -4 -22 13 -8 22 4 22 27 0 19 1 19 20 -3 11 -13 20 -19 20 -13 0 6 -13
24 -30 41 -31 33 -39 49 -17 36 7 -5 6 -1 -3 10 -8 10 -24 22 -37 27 -13 5
-23 14 -23 21 0 9 3 9 12 0 7 -7 16 -12 21 -12 5 0 2 7 -7 15 -8 8 -22 12 -30
9 -12 -5 -15 -2 -10 10 3 9 11 13 17 9 6 -3 7 -1 3 5 -9 15 -11 15 -25 -2z
m19 -51 c20 -24 6 -28 -15 -5 -10 11 -13 20 -8 20 6 0 16 -7 23 -15z"/>
<path d="M3632 1053 c-6 -3 -9 -10 -6 -15 4 -6 -1 -17 -11 -25 -14 -9 -15 -13
-4 -13 11 0 12 -2 0 -9 -9 -6 -10 -11 -2 -15 6 -4 11 -2 11 3 0 6 8 11 17 11
13 0 14 -3 5 -12 -17 -17 -15 -39 3 -32 8 4 15 13 15 21 0 8 4 11 10 8 6 -3 7
1 4 9 -3 9 -10 13 -15 10 -5 -3 -9 -1 -9 5 0 6 -8 7 -17 4 -16 -6 -16 -5 -4
10 7 9 19 17 27 17 7 0 16 5 20 12 5 7 3 8 -6 3 -7 -4 -15 -3 -19 2 -3 6 -12
8 -19 6z"/>
<path d="M4891 1031 c-18 -11 11 -43 32 -35 9 3 17 12 17 19 0 15 -33 26 -49
16z"/>
<path d="M120 1015 c-7 -8 -17 -12 -24 -8 -6 4 -5 -1 3 -10 12 -16 12 -17 -5
-11 -10 4 -16 4 -12 -1 4 -4 0 -14 -10 -21 -13 -10 -7 -10 20 1 48 19 48 19
48 -10 0 -16 6 -25 15 -25 17 0 20 25 5 35 -6 4 -7 11 -4 17 4 7 2 8 -4 4 -16
-10 -15 7 1 23 10 10 8 11 -7 5 -13 -5 -17 -4 -12 4 10 17 1 15 -14 -3z"/>
<path d="M777 1024 c-3 -6 2 -21 12 -33 10 -11 17 -32 16 -46 -3 -22 -1 -24
17 -14 18 10 19 12 3 29 -13 14 -13 19 -3 23 8 3 5 6 -7 6 -17 1 -18 3 -5 12
13 9 13 10 -2 5 -11 -3 -18 1 -20 12 -2 11 -6 13 -11 6z"/>
<path d="M4986 1018 c5 -8 1 -9 -12 -4 -15 6 -17 5 -6 -5 15 -16 16 -33 0 -23
-6 4 -8 3 -4 -4 3 -5 1 -12 -5 -14 -7 -2 -9 -13 -5 -26 9 -28 26 -19 26 14 0
13 4 24 8 24 5 0 17 7 28 16 10 8 13 13 7 9 -7 -3 -13 -2 -13 3 0 6 -7 13 -16
16 -10 4 -13 2 -8 -6z"/>
<path d="M4305 1010 c-3 -5 -1 -10 4 -10 6 0 11 5 11 10 0 6 -2 10 -4 10 -3 0
-8 -4 -11 -10z"/>
<path d="M4797 1013 c-14 -13 -6 -23 18 -23 28 0 34 15 9 24 -19 7 -19 7 -27
-1z"/>
<path d="M640 989 c0 -11 5 -17 10 -14 6 3 10 13 10 21 0 8 -4 14 -10 14 -5 0
-10 -9 -10 -21z"/>
<path d="M1176 1002 c-2 -4 -1 -14 3 -21 6 -9 11 -10 15 -2 4 6 1 11 -6 11 -9
0 -9 3 2 10 9 6 10 10 3 10 -6 0 -14 -4 -17 -8z"/>
<path d="M3920 1006 c0 -2 7 -7 16 -10 8 -3 12 -2 9 4 -6 10 -25 14 -25 6z"/>
<path d="M4320 996 c-25 -11 -39 -36 -20 -36 6 0 10 -5 10 -11 0 -6 -7 -8 -17
-4 -14 5 -15 3 -6 -6 13 -13 36 -3 30 14 -2 6 6 19 17 28 26 22 19 30 -14 15z"/>
<path d="M4455 1000 c-3 -5 -2 -10 4 -10 5 0 13 5 16 10 3 6 2 10 -4 10 -5 0
-13 -4 -16 -10z"/>
<path d="M1204 969 c-3 -5 -7 -19 -9 -30 -4 -20 -3 -20 14 -5 9 9 23 16 29 16
7 0 12 4 12 9 0 12 -39 21 -46 10z"/>
<path d="M3575 959 c-4 -13 -8 -32 -8 -41 0 -10 -6 -18 -14 -18 -8 0 -11 -5
-8 -10 4 -6 11 -8 16 -4 6 3 16 0 22 -8 7 -7 11 -11 9 -9 -1 2 5 15 13 27 14
21 13 23 -5 19 -22 -4 -26 5 -9 22 7 7 8 17 2 28 -9 15 -11 15 -18 -6z"/>
<path d="M3852 961 c2 -7 7 -12 11 -12 12 1 9 15 -3 20 -7 2 -11 -2 -8 -8z"/>
<path d="M5040 960 c0 -5 5 -10 11 -10 5 0 7 5 4 10 -3 6 -8 10 -11 10 -2 0
-4 -4 -4 -10z"/>
<path d="M68 929 c10 -13 9 -19 -3 -29 -8 -7 -12 -17 -8 -23 4 -7 0 -8 -11 -4
-14 5 -17 3 -13 -8 4 -8 0 -21 -8 -28 -8 -9 -10 -19 -4 -28 5 -8 9 -9 9 -3 0
6 11 10 25 9 14 -2 25 1 25 7 0 6 -6 8 -14 5 -25 -10 -26 6 -3 37 31 41 55 86
36 69 -10 -10 -16 -10 -28 0 -14 10 -14 10 -3 -4z"/>
<path d="M5024 913 c21 -41 31 -47 47 -25 7 9 9 14 5 10 -5 -4 -15 -3 -23 3
-11 10 -11 15 -1 28 11 14 11 14 -3 4 -12 -10 -18 -10 -28 0 -8 7 -7 0 3 -20z"/>
<path d="M833 924 c-7 -3 -9 -13 -6 -22 6 -15 4 -15 -10 -4 -14 12 -15 11 -4
-13 8 -17 18 -24 30 -21 11 3 17 -2 17 -14 0 -10 5 -20 10 -22 6 -2 12 -13 13
-26 0 -12 5 -22 10 -22 5 0 5 10 1 23 -5 12 -8 32 -9 44 0 12 -4 21 -10 20 -5
-1 -10 6 -10 15 0 9 -4 20 -9 25 -5 5 -6 2 -1 -7 7 -12 6 -13 -6 -2 -12 11
-12 14 1 22 15 10 4 12 -17 4z"/>
<path d="M1970 915 c-7 -9 -10 -18 -6 -22 3 -3 6 -1 6 4 0 16 26 10 48 -10 10
-9 30 -17 45 -17 14 0 29 -4 32 -10 3 -5 15 -10 26 -10 10 0 19 5 19 10 0 6
-11 10 -25 10 -14 0 -25 4 -25 9 0 5 -17 12 -37 16 -21 4 -45 13 -54 21 -14
13 -18 13 -29 -1z"/>
<path d="M2060 920 c0 -5 7 -10 16 -10 8 0 12 5 9 10 -3 6 -10 10 -16 10 -5 0
-9 -4 -9 -10z"/>
<path d="M3040 920 c0 -5 5 -10 10 -10 6 0 10 5 10 10 0 6 -4 10 -10 10 -5 0
-10 -4 -10 -10z"/>
<path d="M3105 910 c-17 -11 -40 -20 -52 -20 -13 0 -23 -4 -23 -10 0 -5 -12
-10 -27 -10 -21 0 -24 -3 -15 -12 10 -10 17 -10 32 0 31 19 60 15 60 -8 0 -11
6 -20 14 -20 23 0 28 18 9 29 -17 9 -17 11 4 30 15 14 23 17 26 8 4 -8 6 -7 6
3 1 13 2 13 11 0 5 -8 10 -10 10 -4 0 27 -26 33 -55 14z"/>
<path d="M4255 921 c-3 -5 -1 -13 5 -16 8 -5 8 -11 0 -20 -8 -9 -6 -14 9 -18
15 -4 20 2 23 24 3 22 2 26 -8 18 -8 -6 -14 -6 -18 0 -3 5 0 12 6 14 9 4 10 6
1 6 -6 1 -14 -3 -18 -8z"/>
<path d="M2165 909 c-4 -6 -4 -13 -1 -16 3 -4 6 -1 6 7 0 10 4 10 18 -1 15
-13 16 -12 3 4 -16 20 -18 20 -26 6z"/>
<path d="M2925 904 c-10 -8 -14 -14 -9 -14 6 0 15 5 22 12 9 9 12 9 12 0 0 -7
7 -12 15 -12 8 0 15 4 15 9 0 16 -36 19 -55 5z"/>
<path d="M3857 889 c-16 -29 -15 -49 1 -49 4 0 13 14 21 31 18 42 1 56 -22 18z"/>
<path d="M120 900 c0 -6 -11 -21 -25 -34 l-25 -23 21 -18 c18 -17 19 -17 13
-2 -4 10 0 25 8 35 24 28 29 40 18 47 -5 3 -10 1 -10 -5z"/>
<path d="M1214 891 c0 -9 8 -18 18 -18 27 -2 30 13 5 24 -19 9 -23 8 -23 -6z"/>
<path d="M1461 898 c-1 -9 -6 -18 -12 -20 -6 -2 -9 -13 -7 -23 4 -17 6 -16 17
9 6 16 10 34 7 40 -2 6 -5 4 -5 -6z"/>
<path d="M3648 905 c-3 -3 1 -21 10 -38 13 -26 17 -29 20 -13 2 10 0 21 -6 25
-5 3 -11 12 -13 19 -3 7 -7 10 -11 7z"/>
<path d="M4986 902 c-3 -6 3 -21 14 -35 11 -14 20 -31 20 -37 0 -10 4 -9 15 0
9 7 12 16 8 19 -5 3 -18 19 -30 34 -12 15 -24 24 -27 19z"/>
<path d="M1926 874 c-6 -21 -10 -24 -21 -14 -17 14 -33 6 -45 -24 -7 -17 -9
-17 -9 -3 -1 22 -7 22 -38 -3 -14 -11 -21 -20 -15 -20 6 0 14 5 17 10 4 7 13
7 26 0 16 -9 21 -7 29 12 7 20 14 12 12 -13 -1 -3 5 -6 13 -6 8 0 12 4 9 9 -4
5 3 12 14 15 13 3 22 15 24 34 6 36 -7 38 -16 3z m-21 -23 c3 -5 0 -13 -6 -17
-7 -4 -9 -3 -5 4 3 5 0 13 -6 15 -9 4 -10 6 -1 6 6 1 14 -3 18 -8z"/>
<path d="M3183 878 c1 -16 4 -28 7 -29 3 0 13 -2 23 -4 9 -2 15 1 11 6 -3 5 0
9 6 9 6 0 15 -11 20 -25 11 -30 20 -33 13 -5 -8 31 -30 45 -48 30 -18 -15 -20
0 -2 20 10 12 9 12 -5 1 -14 -10 -17 -9 -21 6 -3 10 -4 6 -4 -9z"/>
<path d="M2211 880 c-11 -6 -8 -9 10 -12 13 -2 23 -8 22 -15 -1 -6 3 -10 10
-9 7 0 12 -3 12 -9 0 -5 -4 -9 -8 -7 -5 1 -6 -2 -2 -8 3 -5 1 -10 -4 -10 -7 0
-11 -26 -10 -67 1 -65 1 -66 11 -28 5 22 7 50 5 63 -3 15 2 27 14 35 25 15 24
34 -1 42 -12 4 -17 11 -14 18 4 7 4 9 -1 5 -4 -4 -13 -4 -19 2 -7 5 -18 5 -25
0z"/>
<path d="M2868 879 c-11 -6 -15 -16 -11 -27 6 -15 5 -16 -12 -2 -10 8 -16 10
-12 3 4 -6 1 -18 -7 -26 -13 -13 -12 -14 9 -14 13 0 24 2 23 6 -2 19 4 24 13
11 8 -12 9 -11 7 5 -2 11 -7 23 -13 27 -5 4 3 8 18 8 16 0 26 4 22 10 -8 12
-15 12 -37 -1z"/>
<path d="M5072 868 c-8 -8 -8 -15 -1 -24 7 -8 6 -14 -2 -20 -8 -4 -9 -3 -5 4
5 8 2 10 -8 6 -9 -3 -16 -10 -16 -16 0 -5 5 -6 10 -3 6 3 10 1 10 -4 0 -8 6
-7 19 1 13 8 17 17 12 27 -5 9 -6 22 -4 29 6 15 0 15 -15 0z"/>
<path d="M2012 853 c-6 -3 -10 -9 -6 -14 7 -12 44 -12 44 0 0 11 -21 19 -38
14z"/>
<path d="M2931 844 c13 -16 39 -19 39 -5 0 5 -11 11 -25 13 -20 4 -23 3 -14
-8z"/>
<path d="M4237 843 c3 -10 10 -23 15 -29 10 -14 0 -45 -20 -59 -11 -9 -10 -11
5 -12 10 -1 27 10 37 24 18 24 18 27 3 38 -10 7 -17 22 -17 34 0 12 -6 21 -15
21 -9 0 -12 -6 -8 -17z"/>
<path d="M800 834 c0 -19 24 -44 42 -44 9 1 7 5 -4 14 -10 7 -18 21 -18 30 0
9 -4 16 -10 16 -5 0 -10 -7 -10 -16z"/>
<path d="M1588 839 c-22 -12 -24 -33 -2 -25 9 3 12 2 9 -5 -4 -6 3 -13 14 -16
20 -5 21 -6 4 -20 -10 -8 -12 -12 -6 -8 17 8 55 -13 47 -27 -4 -7 -3 -8 4 -4
15 9 3 36 -17 36 -14 0 -14 2 -1 10 10 6 11 10 3 10 -7 0 -13 7 -13 15 0 9 -7
18 -15 21 -8 4 -12 10 -9 15 7 11 3 11 -18 -2z"/>
<path d="M2150 840 c0 -5 9 -10 20 -10 11 0 20 5 20 10 0 6 -9 10 -20 10 -11
0 -20 -4 -20 -10z"/>
<path d="M3277 839 c7 -7 15 -10 18 -7 3 3 -2 9 -12 12 -14 6 -15 5 -6 -5z"/>
<path d="M3513 844 c4 -4 0 -12 -9 -18 -13 -10 -11 -12 10 -14 30 -2 36 22 9
32 -10 4 -14 4 -10 0z"/>
<path d="M4300 830 c0 -11 7 -20 15 -20 17 0 18 2 9 24 -9 23 -24 20 -24 -4z"/>
<path d="M1474 825 c-17 -13 -17 -14 -2 -15 9 0 20 5 23 11 11 17 0 20 -21 4z"/>
<path d="M3620 830 c0 -12 28 -25 36 -17 3 3 -4 10 -15 17 -15 7 -21 7 -21 0z"/>
<path d="M3890 827 c-11 -9 -13 -23 -9 -52 3 -22 7 -31 8 -20 1 14 4 16 9 7 5
-8 9 5 9 33 0 25 -1 45 -1 45 -1 0 -8 -6 -16 -13z"/>
<path d="M1960 820 c0 -5 4 -10 9 -10 6 0 13 5 16 10 3 6 -1 10 -9 10 -9 0
-16 -4 -16 -10z"/>
<path d="M2060 820 c0 -5 5 -10 10 -10 6 0 10 5 10 10 0 6 -4 10 -10 10 -5 0
-10 -4 -10 -10z"/>
<path d="M3040 820 c0 -5 5 -10 10 -10 6 0 10 5 10 10 0 6 -4 10 -10 10 -5 0
-10 -4 -10 -10z"/>
<path d="M3140 819 c0 -5 5 -7 10 -4 6 3 10 8 10 11 0 2 -4 4 -10 4 -5 0 -10
-5 -10 -11z"/>
<path d="M3210 819 c0 -5 5 -7 10 -4 6 3 10 8 10 11 0 2 -4 4 -10 4 -5 0 -10
-5 -10 -11z"/>
<path d="M2118 813 c6 -2 18 -2 25 0 6 3 1 5 -13 5 -14 0 -19 -2 -12 -5z"/>
<path d="M2988 813 c7 -3 16 -2 19 1 4 3 -2 6 -13 5 -11 0 -14 -3 -6 -6z"/>
<path d="M3364 768 c1 -21 7 -32 19 -34 9 -1 15 2 11 7 -6 11 9 12 20 2 11
-12 38 -12 60 -2 16 8 15 5 -4 -10 -14 -11 -35 -21 -47 -21 -13 0 -23 -4 -23
-10 0 -5 -11 -10 -25 -10 -14 0 -25 -4 -25 -10 0 -16 60 -12 66 5 8 20 53 9
75 -19 10 -12 21 -18 25 -14 4 4 1 15 -7 24 -19 23 -18 77 1 86 12 5 11 7 -3
7 -10 1 -15 6 -12 11 4 6 11 7 17 4 7 -4 8 -2 4 4 -5 9 -13 9 -28 1 -15 -8
-17 -13 -8 -19 9 -6 7 -11 -8 -19 -15 -8 -27 -7 -46 3 -14 7 -22 17 -18 21 4
4 -3 2 -15 -4 -13 -7 -23 -8 -23 -2 0 5 5 11 12 13 8 3 7 6 -4 10 -12 5 -15
-1 -14 -24z"/>
<path d="M1745 780 c-4 -6 -10 -8 -15 -5 -5 3 -19 1 -30 -5 -16 -9 -18 -15
-10 -30 5 -10 10 -28 10 -40 0 -13 5 -20 13 -18 6 3 12 17 12 32 1 16 7 33 15
40 8 6 16 17 18 24 3 15 -4 16 -13 2z m-23 -27 c-6 -3 -10 -9 -6 -14 3 -5 1
-9 -4 -9 -6 0 -13 7 -16 16 -3 8 -2 12 3 9 5 -3 13 0 16 6 4 5 10 7 14 3 3 -4
0 -9 -7 -11z"/>
<path d="M2864 776 c-3 -8 -1 -34 4 -58 l10 -43 1 58 c1 56 -4 71 -15 43z"/>
<path d="M3850 759 c0 -16 4 -28 9 -25 8 5 3 56 -5 56 -2 0 -4 -14 -4 -31z"/>
<path d="M1232 755 c0 -16 2 -22 5 -12 2 9 2 23 0 30 -3 6 -5 -1 -5 -18z"/>
<path d="M883 751 c0 -11 5 -18 9 -15 4 3 5 11 1 19 -7 21 -12 19 -10 -4z"/>
<path d="M1262 750 c0 -14 2 -19 5 -12 2 6 2 18 0 25 -3 6 -5 1 -5 -13z"/>
<path d="M2294 699 c1 -58 3 -64 13 -46 7 12 12 30 13 40 0 19 25 23 36 5 4
-6 3 -8 -3 -5 -6 4 -10 -3 -9 -16 0 -12 -4 -21 -10 -20 -7 1 -11 -10 -10 -27
1 -25 11 -34 11 -9 0 5 5 9 10 9 6 0 10 -4 10 -9 0 -5 2 -12 6 -15 3 -3 5 5 5
19 0 13 -3 22 -7 19 -4 -2 -7 5 -6 16 1 11 5 20 10 20 5 0 7 10 5 23 -2 16 -9
21 -25 19 -13 -2 -23 2 -23 7 0 11 15 15 34 12 5 -1 4 5 -4 13 -14 18 -25 22
-15 6 3 -5 1 -10 -4 -10 -6 0 -11 4 -11 8 0 5 -6 9 -14 9 -10 0 -13 -16 -12
-68z"/>
<path d="M2770 754 c-8 -8 -9 -14 -4 -13 24 4 31 -4 32 -38 1 -20 6 -41 12
-47 5 -5 10 -18 10 -28 0 -10 5 -18 10 -18 6 0 10 7 10 16 0 9 8 23 18 30 9 7
12 14 5 14 -6 0 -15 -4 -18 -10 -3 -5 -11 -10 -17 -10 -7 0 -8 20 -4 60 6 50
5 60 -9 60 -8 0 -15 -4 -15 -10 0 -5 -5 -10 -11 -10 -5 0 -7 5 -4 10 10 16 -1
12 -15 -6z"/>
<path d="M4300 741 c0 -11 5 -23 10 -26 6 -4 10 5 10 19 0 14 -4 26 -10 26 -5
0 -10 -9 -10 -19z"/>
<path d="M1608 736 c-10 -7 -18 -16 -18 -20 0 -10 38 -7 45 4 3 6 0 10 -7 10
-9 0 -9 3 2 10 8 5 11 10 5 10 -5 -1 -18 -7 -27 -14z"/>
<path d="M826 714 c-7 -19 12 -47 25 -38 5 3 9 16 9 30 0 27 -24 33 -34 8z"/>
<path d="M2764 722 c4 -7 2 -12 -3 -12 -6 0 -11 -7 -11 -15 0 -8 5 -15 11 -15
8 0 8 -4 0 -13 -9 -11 -9 -76 -1 -97 1 -3 2 -8 1 -12 0 -4 9 -13 21 -19 22
-12 22 -12 5 14 -12 19 -14 28 -5 33 8 5 6 10 -8 16 -18 8 -18 8 1 5 13 -1 20
-10 20 -26 0 -13 6 -26 13 -28 17 -6 15 32 -3 47 -8 7 -13 16 -10 20 3 5 -3 6
-13 3 -13 -3 -18 2 -19 19 -2 17 0 19 7 8 5 -8 12 -11 17 -7 4 5 3 11 -3 15
-6 4 -10 20 -9 35 1 15 -3 30 -8 34 -6 3 -7 1 -3 -5z"/>
<path d="M883 681 c0 -11 5 -18 9 -15 4 3 5 11 1 19 -7 21 -12 19 -10 -4z"/>
<path d="M1223 683 c-18 -7 -16 -33 2 -33 8 0 15 9 15 20 0 11 -1 20 -2 19 -2
0 -9 -3 -15 -6z"/>
<path d="M3870 671 c0 -12 6 -21 16 -21 9 0 14 7 12 17 -5 25 -28 28 -28 4z"/>
<path d="M4227 683 c-3 -5 -1 -17 3 -27 5 -16 8 -17 15 -6 5 9 4 15 -3 18 -7
2 -10 8 -6 13 3 5 3 9 0 9 -3 0 -7 -3 -9 -7z"/>
<path d="M1655 660 c-3 -5 3 -10 14 -10 12 0 21 5 21 10 0 6 -6 10 -14 10 -8
0 -18 -4 -21 -10z"/>
<path d="M1745 660 c-3 -5 -1 -10 4 -10 6 0 11 5 11 10 0 6 -2 10 -4 10 -3 0
-8 -4 -11 -10z"/>
<path d="M2252 658 c-7 -7 -12 -28 -12 -47 0 -44 15 -30 23 22 6 41 6 42 -11
25z"/>
<path d="M4267 649 c3 -11 12 -19 19 -19 21 0 17 27 -5 33 -14 3 -17 0 -14
-14z"/>
<path d="M31 646 c-10 -12 -8 -19 8 -35 13 -13 16 -21 8 -25 -9 -3 -9 -5 0 -5
6 -1 9 -9 6 -19 -2 -11 4 -25 14 -33 16 -12 17 -12 7 1 -6 8 -10 32 -9 53 2
29 -1 37 -12 33 -9 -4 -11 -2 -6 7 20 32 7 50 -16 23z"/>
<path d="M114 646 c-8 -22 3 -33 18 -18 9 9 9 15 0 24 -9 9 -13 7 -18 -6z"/>
<path d="M1608 653 c6 -2 18 -2 25 0 6 3 1 5 -13 5 -14 0 -19 -2 -12 -5z"/>
<path d="M820 607 c0 -24 -6 -49 -12 -56 -7 -7 -8 -12 -3 -11 22 5 36 0 30
-10 -4 -6 -12 -7 -18 -4 -8 4 -7 2 1 -7 11 -12 14 -12 22 1 5 8 6 18 4 22 -3
4 1 8 8 8 8 1 6 6 -6 15 -13 10 -17 21 -12 39 3 15 11 26 16 26 6 0 10 5 10
10 0 6 -9 10 -20 10 -17 0 -20 -7 -20 -43z"/>
<path d="M2871 633 c0 -12 -7 -28 -15 -36 -9 -8 -11 -19 -6 -28 11 -17 33 35
27 65 -4 20 -4 20 -6 -1z"/>
<path d="M3840 636 c0 -9 5 -16 10 -16 6 0 10 4 10 9 0 6 -4 13 -10 16 -5 3
-10 -1 -10 -9z"/>
<path d="M5046 642 c-3 -5 0 -9 7 -9 7 0 18 -2 26 -4 7 -2 15 2 17 9 1 7 0 8
-3 2 -3 -6 -11 -7 -23 0 -10 6 -21 6 -24 2z"/>
<path d="M5055 600 c-6 -20 -35 -28 -35 -10 0 6 -4 10 -9 10 -4 0 -3 -16 3
-35 12 -40 21 -44 29 -14 4 15 11 20 22 16 13 -5 14 -3 5 13 -9 16 -8 20 5 20
9 0 13 5 10 10 -10 16 -23 12 -30 -10z"/>
<path d="M3860 592 c0 -26 10 -52 20 -52 4 0 7 14 6 32 -1 34 -26 53 -26 20z"/>
<path d="M3896 595 c4 -8 8 -15 10 -15 2 0 4 7 4 15 0 8 -4 15 -10 15 -5 0 -7
-7 -4 -15z"/>
<path d="M1237 581 c-6 -26 8 -49 17 -26 9 24 8 45 -3 45 -5 0 -11 -9 -14 -19z"/>
<path d="M4277 577 c-16 -25 -16 -26 0 -20 16 6 16 5 4 -10 -12 -15 -12 -17 2
-11 20 7 26 24 18 48 -7 17 -9 16 -24 -7z"/>
<path d="M2342 581 c0 -3 0 -8 -2 -11 -1 -3 -3 -15 -6 -28 -3 -19 -2 -21 10
-10 8 7 10 15 4 17 -5 1 -2 11 6 20 14 15 14 18 2 18 -8 0 -15 -3 -14 -6z"/>
<path d="M114 544 c3 -8 6 -20 6 -25 0 -5 5 -9 10 -9 16 0 11 37 -6 44 -12 5
-15 2 -10 -10z"/>
<path d="M2291 544 c0 -11 3 -14 6 -6 3 7 2 16 -1 19 -3 4 -6 -2 -5 -13z"/>
<path d="M1189 548 c-5 -18 -6 -38 -1 -34 7 8 12 36 6 36 -2 0 -4 -1 -5 -2z"/>
<path d="M3923 535 c0 -8 4 -12 9 -9 5 3 6 10 3 15 -9 13 -12 11 -12 -6z"/>
<path d="M2770 526 c0 -2 8 -10 18 -17 15 -13 16 -12 3 4 -13 16 -21 21 -21
13z"/>
<path d="M4290 520 c-10 -6 -11 -10 -2 -10 6 0 12 -8 13 -17 0 -15 2 -15 9 2
16 37 10 44 -20 25z"/>
<path d="M2262 504 c2 -9 12 -23 24 -30 18 -12 21 -12 21 0 0 9 -4 13 -8 10
-4 -2 -10 5 -14 16 -8 24 -28 27 -23 4z"/>
<path d="M1260 486 c0 -14 4 -27 9 -30 12 -8 22 20 15 39 -9 23 -24 18 -24 -9z"/>
<path d="M2836 494 c-4 -9 -1 -23 5 -30 7 -8 7 -14 1 -14 -15 0 -33 26 -24 35
4 5 1 5 -7 0 -10 -6 -7 -14 15 -35 34 -31 58 -36 43 -9 -6 12 -5 20 3 25 7 4
8 3 4 -4 -3 -6 3 -16 14 -22 29 -16 25 2 -10 39 -35 36 -36 36 -44 15z m28
-25 c-3 -5 -10 -7 -15 -3 -5 3 -7 10 -3 15 3 5 10 7 15 3 5 -3 7 -10 3 -15z"/>
<path d="M3836 494 c-7 -18 0 -34 15 -34 12 0 12 37 0 44 -5 3 -12 -1 -15 -10z"/>
<path d="M4960 496 c-14 -6 -31 -16 -38 -24 -8 -7 -27 -19 -44 -28 -28 -15
-31 -29 -5 -29 7 0 12 -6 12 -14 0 -8 8 -15 18 -17 9 -1 17 2 17 7 0 6 4 8 9
5 5 -3 12 1 15 9 4 13 2 14 -14 5 -28 -15 -38 14 -15 40 22 24 38 25 55 5 14
-16 25 -13 39 14 14 25 -16 42 -49 27z m38 -25 c-2 -9 -7 -16 -12 -16 -5 0
-10 7 -11 16 -2 9 4 16 12 16 7 0 12 -7 11 -16z"/>
<path d="M278 493 c-29 -7 -20 -23 13 -23 19 0 29 4 27 12 -5 14 -17 17 -40
11z"/>
<path d="M3935 490 c3 -5 0 -10 -7 -10 -8 0 -9 -3 -3 -8 15 -10 18 -55 3 -46
-7 4 -8 3 -4 -5 4 -6 12 -9 17 -6 5 4 12 0 15 -9 3 -8 12 -12 19 -9 11 3 8 11
-11 28 -17 16 -21 25 -13 30 8 6 7 10 -2 16 -11 7 -11 9 -1 9 7 0 10 5 7 10
-3 6 -11 10 -16 10 -6 0 -7 -4 -4 -10z"/>
<path d="M136 479 c2 -4 0 -10 -6 -14 -5 -3 -10 -1 -10 6 0 7 -3 9 -6 6 -9 -9
16 -38 27 -31 5 3 6 10 3 16 -5 8 -1 9 12 4 38 -16 54 -18 54 -7 0 6 -7 11
-15 11 -8 0 -15 4 -15 10 0 5 -11 9 -24 8 -14 -1 -23 -5 -20 -9z"/>
<path d="M728 469 c-42 -21 -50 -39 -17 -39 11 0 18 -4 15 -8 -3 -5 1 -9 9 -9
8 0 12 3 10 7 -5 8 28 42 36 38 2 -2 -3 3 -11 11 -13 11 -11 12 15 7 22 -5 26
-4 15 4 -20 13 -28 12 -72 -11z m27 -19 c-3 -5 -12 -10 -18 -10 -7 0 -6 4 3
10 19 12 23 12 15 0z"/>
<path d="M2246 482 c-3 -6 1 -15 8 -21 8 -7 17 -8 20 -3 3 6 -1 15 -8 21 -8 7
-17 8 -20 3z"/>
<path d="M4363 474 c-32 -14 -48 -29 -19 -18 9 3 18 -5 25 -23 8 -20 10 -21 7
-5 -2 12 0 20 5 16 5 -3 9 -13 10 -22 0 -11 3 -12 6 -4 2 6 11 12 19 12 20 0
17 30 -3 31 -10 1 -22 1 -27 0 -5 -1 -4 5 4 13 15 19 15 19 -27 0z"/>
<path d="M4455 480 c3 -5 10 -10 16 -10 5 0 9 5 9 10 0 6 -7 10 -16 10 -8 0
-12 -4 -9 -10z"/>
<path d="M4800 480 c0 -5 5 -10 10 -10 6 0 10 5 10 10 0 6 -4 10 -10 10 -5 0
-10 -4 -10 -10z"/>
<path d="M2101 459 c-27 -22 -23 -36 6 -20 10 5 27 12 38 16 16 5 17 8 5 15
-20 13 -21 12 -49 -11z"/>
<path d="M1156 461 c-3 -4 4 -19 15 -32 l21 -24 -7 24 c-6 18 -4 22 6 15 12
-6 12 -5 0 9 -15 19 -27 22 -35 8z"/>
<path d="M2220 454 c0 -10 6 -14 14 -11 10 4 13 1 10 -7 -9 -24 12 -26 30 -4
15 17 15 20 3 15 -9 -3 -21 1 -27 9 -16 19 -30 18 -30 -2z"/>
<path d="M2965 460 c3 -5 14 -10 24 -10 9 0 22 -5 29 -12 6 -6 15 -9 19 -5 3
4 -2 14 -13 22 -22 16 -69 20 -59 5z"/>
<path d="M225 430 c3 -5 1 -18 -4 -27 -6 -11 -11 -13 -11 -5 0 7 -5 10 -10 7
-8 -5 -7 -11 1 -21 6 -7 15 -12 19 -9 5 3 14 -1 22 -8 14 -15 42 -11 32 4 -3
5 -1 9 5 9 5 0 13 -9 16 -20 7 -24 27 -16 23 8 -1 10 1 23 5 30 11 17 -21 28
-36 12 -10 -10 -8 -12 5 -7 12 4 15 2 12 -7 -3 -8 -14 -12 -25 -9 -10 3 -19 0
-19 -6 0 -5 -6 -8 -13 -5 -23 8 -15 32 12 39 20 5 22 8 10 16 -19 12 -52 12
-44 -1z"/>
<path d="M1136 425 c-3 -9 -2 -14 3 -10 5 3 11 0 13 -7 3 -8 6 -9 11 -1 4 6 1
16 -7 22 -10 9 -15 8 -20 -4z"/>
<path d="M1210 428 c0 -17 18 -44 24 -37 8 7 -5 49 -15 49 -5 0 -9 -6 -9 -12z"/>
<path d="M3885 419 c-8 -23 -1 -34 14 -24 13 8 15 45 2 45 -5 0 -13 -9 -16
-21z"/>
<path d="M649 408 c-7 -26 -6 -48 3 -54 8 -5 9 -2 4 11 -5 14 -3 15 6 7 9 -7
17 -6 27 5 11 12 11 14 0 12 -27 -3 -40 1 -34 11 3 6 4 10 1 10 -3 0 -6 -1 -7
-2z"/>
<path d="M2085 380 c3 -36 3 -37 24 -43 13 -3 21 1 24 14 3 11 11 19 17 19 9
0 9 -4 -1 -17 -13 -15 -12 -15 9 -2 12 8 22 17 22 22 0 4 5 5 12 1 7 -5 8 -3
3 6 -6 9 -4 12 7 8 8 -4 15 -1 15 5 0 7 -10 12 -23 12 -12 0 -20 -4 -17 -9 3
-4 -5 -5 -18 -1 -24 7 -24 7 -4 -9 13 -11 15 -14 4 -11 -9 3 -22 -1 -29 -10
-7 -8 -17 -15 -22 -15 -6 0 -5 6 2 15 6 8 9 18 6 24 -3 5 0 11 6 14 7 2 1 4
-13 3 -21 -1 -26 -6 -24 -26z m17 -12 c-7 -7 -12 -8 -12 -2 0 14 12 26 19 19
2 -3 -1 -11 -7 -17z"/>
<path d="M2903 394 c0 -7 7 -10 15 -6 11 4 13 1 7 -8 -5 -9 -4 -11 3 -6 7 4
12 3 12 -1 0 -5 10 -14 23 -22 20 -13 21 -13 8 2 -9 12 -10 17 -2 17 6 0 16
-10 21 -22 6 -16 9 -18 9 -7 1 22 -25 43 -40 33 -7 -4 -9 -3 -5 4 3 5 0 13 -6
16 -7 3 -2 3 12 0 14 -4 22 -3 17 1 -12 13 -74 12 -74 -1z"/>
<path d="M2997 403 c7 -2 10 -10 7 -18 -3 -7 0 -16 5 -20 6 -3 9 -10 6 -14 -2
-5 4 -16 15 -26 11 -10 20 -15 20 -10 0 4 7 2 15 -5 11 -9 19 -10 26 -3 8 8 7
13 -2 18 -8 5 -10 4 -5 -3 4 -7 3 -12 -3 -12 -5 0 -13 5 -16 10 -4 6 -10 8
-15 5 -5 -3 -16 9 -24 26 -19 39 -20 45 -3 31 9 -8 13 -7 13 6 0 11 -9 17 -26
18 -14 1 -20 -1 -13 -3z"/>
<path d="M4464 402 c7 -12 -5 -16 -33 -13 -11 2 -11 0 0 -12 10 -11 18 -12 27
-5 10 8 11 6 5 -8 -6 -17 -5 -18 11 -4 11 8 14 16 7 18 -6 2 -9 8 -6 12 3 5 0
12 -6 16 -8 4 -9 3 -5 -4z"/>
<path d="M4802 378 c0 -15 4 -31 10 -34 6 -4 8 1 4 14 -4 12 -1 26 9 35 14 14
13 16 -3 14 -14 -1 -19 -9 -20 -29z"/>
<path d="M4843 390 c-13 -5 -23 -11 -23 -14 0 -14 13 -36 22 -36 5 0 6 5 2 12
-5 7 -2 9 9 5 9 -3 18 0 21 9 4 10 2 12 -6 8 -8 -5 -9 -2 -5 9 3 10 5 17 4 16
-1 0 -12 -4 -24 -9z"/>
<path d="M3990 372 c0 -12 19 -26 26 -19 2 2 -2 10 -11 17 -9 8 -15 8 -15 2z"/>
<path d="M1115 360 c3 -5 8 -10 11 -10 2 0 4 5 4 10 0 6 -5 10 -11 10 -5 0 -7
-4 -4 -10z"/>
<path d="M1173 353 c-20 -8 -15 -23 7 -23 11 0 20 7 20 15 0 15 -6 17 -27 8z"/>
<path d="M3926 353 c-12 -12 -5 -23 14 -23 11 0 20 4 20 9 0 11 -26 22 -34 14z"/>
<path d="M544 325 c-18 -14 -18 -14 4 -8 12 3 22 9 22 14 0 12 -3 11 -26 -6z"/>
<path d="M415 319 c-3 -4 2 -6 10 -5 21 3 28 13 10 13 -9 0 -18 -4 -20 -8z"/>
<path d="M1093 324 c4 -4 1 -14 -6 -23 -11 -14 -10 -15 8 -1 11 8 21 15 23 16
2 1 -5 5 -15 8 -9 4 -14 4 -10 0z"/>
<path d="M2025 321 c-8 -14 15 -25 27 -13 6 6 18 8 27 5 14 -4 14 -3 1 6 -9 6
-18 7 -24 1 -13 -13 -29 -13 -21 0 3 6 4 10 1 10 -3 0 -7 -4 -11 -9z"/>
<path d="M4550 326 c0 -2 9 -6 20 -9 11 -3 18 -1 14 4 -5 9 -34 13 -34 5z"/>
<path d="M4670 318 c0 -10 9 -9 35 2 17 8 16 8 -7 7 -16 -1 -28 -5 -28 -9z"/>
<path d="M1760 294 c0 -17 22 -14 28 4 2 7 -3 12 -12 12 -9 0 -16 -7 -16 -16z"/>
<path d="M1940 300 c0 -5 -18 -10 -40 -10 -23 0 -53 -8 -68 -17 -15 -9 -28
-17 -28 -17 -1 -1 -5 -11 -8 -23 -5 -15 -3 -23 5 -23 6 0 17 -7 24 -17 18 -24
34 -7 31 31 -3 32 -2 34 36 40 21 4 44 3 50 0 7 -5 8 -2 4 5 -5 7 0 18 10 26
18 13 18 14 2 15 -10 0 -18 -4 -18 -10z m-94 -74 c0 -15 -5 -22 -13 -19 -14 5
-17 25 -6 36 12 13 19 7 19 -17z"/>
<path d="M3164 295 c10 -8 15 -19 10 -26 -4 -7 -3 -10 4 -5 18 11 94 -6 114
-26 23 -23 28 -23 28 3 0 24 -52 49 -105 49 -19 0 -35 5 -35 10 0 6 -8 10 -17
10 -17 -1 -17 -2 1 -15z"/>
<path d="M3332 298 c6 -18 28 -21 28 -4 0 9 -7 16 -16 16 -9 0 -14 -5 -12 -12z"/>
<path d="M4023 295 c0 -8 3 -13 5 -10 3 3 11 0 19 -6 11 -10 10 -14 -7 -26
-11 -8 -20 -24 -20 -36 1 -21 1 -21 15 -3 10 13 22 17 42 13 15 -4 22 -4 15
-1 -6 3 -10 10 -6 15 3 5 0 9 -6 9 -6 0 -8 5 -5 10 3 6 1 10 -5 10 -6 0 -8 6
-4 13 4 6 3 9 -1 4 -5 -4 -16 0 -25 8 -15 13 -17 13 -17 0z"/>
<path d="M1061 273 c12 -14 12 -16 -1 -11 -11 4 -16 0 -17 -13 -1 -11 5 -19
14 -19 9 0 22 -8 29 -17 11 -15 13 -16 14 -2 0 23 -23 68 -39 74 -12 5 -12 3
0 -12z"/>
<path d="M1990 280 c-8 -5 -11 -12 -7 -16 3 -4 12 -2 19 4 7 6 17 10 21 10 17
0 16 8 -2 9 -9 1 -24 -2 -31 -7z"/>
<path d="M3086 279 c3 -5 10 -6 16 -3 6 4 14 0 19 -7 4 -7 11 -10 15 -6 11 10
-2 19 -31 22 -14 2 -23 -1 -19 -6z"/>
<path d="M1106 263 c-6 -14 -5 -15 5 -6 7 7 10 15 7 18 -3 3 -9 -2 -12 -12z"/>
<path d="M1893 236 c1 -6 -4 -10 -12 -8 -12 3 -12 0 -1 -12 15 -19 24 -21 14
-4 -5 8 -2 9 9 5 9 -3 19 -2 22 3 4 6 1 10 -5 10 -6 0 -9 4 -6 8 3 5 -1 9 -9
9 -8 0 -13 -5 -12 -11z"/>
<path d="M3203 229 c-1 -12 3 -16 14 -12 12 5 14 3 8 -8 -4 -8 -4 -11 0 -6 5
4 19 0 33 -9 27 -18 38 -13 27 13 -5 10 -9 21 -9 25 -1 3 -4 10 -8 14 -4 3 -6
-3 -3 -15 2 -14 -1 -21 -11 -21 -8 0 -12 5 -9 10 4 6 1 9 -7 8 -7 -2 -12 2
-11 8 1 6 -4 11 -11 11 -6 0 -13 -8 -13 -18z"/>
<path d="M996 222 c-2 -4 4 -8 15 -8 10 0 19 4 19 8 0 4 -6 8 -14 8 -8 0 -17
-4 -20 -8z"/>
<path d="M4114 209 c-3 -6 -15 -9 -25 -6 -11 3 -19 2 -19 -3 0 -4 11 -10 25
-13 14 -2 23 -2 20 1 -2 3 0 11 6 19 6 7 9 13 6 13 -3 0 -9 -5 -13 -11z"/>
<path d="M987 190 c2 -3 14 -5 26 -5 11 0 22 -7 24 -15 4 -13 3 -13 -6 0 -15
21 -14 4 1 -19 11 -18 13 -18 25 -3 11 15 12 15 8 -5 -3 -17 1 -23 14 -23 10
0 21 -3 24 -7 4 -4 24 -7 45 -7 27 -1 36 -5 34 -16 -7 -31 -7 -35 6 -32 6 1
18 3 25 5 6 1 11 -3 10 -8 -1 -6 8 -12 20 -12 20 -2 20 -1 4 8 -18 11 -14 29
6 29 7 0 6 -4 -3 -10 -8 -5 -10 -10 -5 -10 6 0 16 4 24 9 11 7 3 13 -28 22
-24 7 -49 22 -57 34 -11 17 -21 20 -45 17 -21 -3 -30 -1 -25 6 3 6 2 13 -3 16
-11 7 -9 -13 2 -31 6 -9 3 -11 -7 -7 -15 6 -20 17 -17 36 0 4 -8 5 -19 3 -14
-3 -20 2 -20 14 0 13 -8 17 -34 17 -19 0 -32 -3 -29 -6z m223 -104 c0 -2 -7
-9 -15 -16 -13 -11 -14 -10 -9 4 5 14 24 23 24 12z"/>
<path d="M3345 190 c3 -5 8 -10 11 -10 2 0 4 5 4 10 0 6 -5 10 -11 10 -5 0 -7
-4 -4 -10z"/>
<path d="M4075 170 c-3 -5 -1 -10 6 -10 7 0 10 -3 6 -6 -3 -3 -12 -2 -19 2
-21 13 -35 13 -35 -1 0 -20 60 -13 63 8 2 18 -11 23 -21 7z"/>
<path d="M1180 160 c0 -13 20 -13 40 0 12 8 9 10 -12 10 -16 0 -28 -4 -28 -10z"/>
<path d="M1688 159 c-22 -12 -23 -29 -3 -29 9 0 18 -7 21 -15 4 -8 10 -15 16
-15 5 0 6 5 2 12 -5 7 -2 9 7 6 8 -3 19 0 26 7 9 10 5 13 -19 11 -20 0 -32 4
-35 14 -4 12 -3 13 5 1 6 -8 17 -11 27 -7 10 3 15 9 11 13 -11 12 -40 12 -58
2z"/>
<path d="M1772 161 c-11 -6 -10 -10 4 -15 9 -3 19 -4 22 -1 3 3 -1 5 -9 5 -11
0 -11 2 1 10 8 5 11 10 5 10 -5 0 -16 -4 -23 -9z"/>
<path d="M3375 161 c-3 -6 -11 -9 -16 -5 -12 7 -8 -16 6 -32 5 -6 16 -9 24 -6
9 3 12 1 7 -6 -11 -19 5 -14 20 6 13 16 14 16 7 -3 -3 -11 -4 -18 -2 -15 41
49 44 53 27 47 -9 -3 -19 0 -22 9 -3 8 -11 14 -18 14 -10 0 -10 -2 1 -9 7 -5
10 -14 7 -20 -9 -13 -46 -15 -46 -2 0 5 10 7 23 4 12 -3 18 -1 12 4 -5 4 -13
12 -16 16 -4 5 -10 3 -14 -2z"/>
<path d="M3880 160 c0 -5 6 -10 14 -10 8 0 18 5 21 10 3 6 -3 10 -14 10 -12 0
-21 -4 -21 -10z"/>
<path d="M3983 147 c-36 -24 -42 -39 -15 -36 9 1 19 0 22 -1 21 -8 37 -5 49 8
13 13 12 14 -12 10 -18 -3 -24 -1 -19 6 6 10 13 37 9 35 -1 0 -17 -10 -34 -22z"/>
<path d="M1250 140 c0 -5 7 -10 15 -10 8 0 15 5 15 10 0 6 -7 10 -15 10 -8 0
-15 -4 -15 -10z"/>
<path d="M3530 140 c0 -5 5 -10 11 -10 5 0 7 5 4 10 -3 6 -8 10 -11 10 -2 0
-4 -4 -4 -10z"/>
<path d="M3830 140 c0 -5 9 -10 20 -10 11 0 20 5 20 10 0 6 -9 10 -20 10 -11
0 -20 -4 -20 -10z"/>
<path d="M1523 123 c-13 -2 -23 -11 -23 -20 0 -12 6 -13 28 -7 15 4 41 8 59 8
49 -1 48 21 -1 22 -22 1 -51 0 -63 -3z"/>
<path d="M3490 115 c6 -8 9 -24 5 -37 -5 -20 -4 -21 5 -5 6 9 16 15 21 11 6
-4 6 -11 -2 -20 -9 -11 -8 -15 6 -20 9 -4 21 -2 27 4 8 8 5 17 -13 31 -13 11
-20 20 -15 21 15 0 -16 30 -31 30 -12 0 -13 -3 -3 -15z"/>
<path d="M3639 125 c-3 -2 -21 -5 -42 -7 -36 -2 -49 -12 -25 -20 10 -4 10 -10
1 -31 -8 -16 -9 -29 -3 -32 6 -4 10 -1 10 5 0 6 4 9 9 5 6 -3 8 4 6 16 -5 26
19 48 52 49 12 0 25 5 28 10 6 10 -27 15 -36 5z"/>
<path d="M3450 80 c13 -25 30 -26 30 -2 0 14 -2 15 -10 2 -8 -13 -10 -12 -10
3 0 9 -5 17 -10 17 -7 0 -7 -6 0 -20z"/>
<path d="M3892 85 c-15 -18 -36 -20 -26 -3 4 7 3 8 -5 4 -16 -11 -2 -28 18
-22 12 5 12 3 -3 -8 -18 -14 -18 -15 2 -13 11 0 20 4 20 7 -2 20 4 29 17 24 9
-4 15 0 15 10 0 20 -21 20 -38 1z"/>
<path d="M1529 83 c-1 -7 -2 -19 -3 -25 0 -7 -11 -14 -23 -16 -26 -4 -31 -22
-7 -22 9 0 24 10 34 22 13 17 21 20 31 12 12 -9 21 -10 45 -5 4 0 1 7 -5 15
-7 8 -21 12 -32 9 -12 -4 -25 0 -30 8 -6 10 -9 11 -10 2z"/>
<path d="M1617 69 c4 -13 8 -18 11 -10 2 7 -1 18 -6 23 -8 8 -9 4 -5 -13z"/>
<path d="M1641 77 c-1 -21 21 -18 27 4 3 12 2 12 -6 0 -8 -11 -10 -11 -15 0
-4 10 -6 8 -6 -4z"/>
<path d="M1440 66 c0 -9 5 -16 10 -16 6 0 10 4 10 9 0 6 -4 13 -10 16 -5 3
-10 -1 -10 -9z"/>
<path d="M3640 60 c0 -5 9 -10 20 -10 11 0 20 5 20 10 0 6 -9 10 -20 10 -11 0
-20 -4 -20 -10z"/>
<path d="M3600 26 c0 -2 9 -6 20 -9 11 -3 20 -1 20 4 0 5 -9 9 -20 9 -11 0
-20 -2 -20 -4z"/>
</g>
</svg>
